<?xml version="1.0" encoding="utf-8" ?>
<svg baseProfile="tiny" height="300" version="1.2" width="300" xmlns="http://www.w3.org/2000/svg" xmlns:ev="http://www.w3.org/2001/xml-events" xmlns:xlink="http://www.w3.org/1999/xlink"><defs /><circle cx="30" cy="30" fill="none" r="20" stroke="black" stroke-width="2" /><circle cx="80" cy="30" fill="none" r="20" stroke="pink" stroke-width="2" /><circle cx="130" cy="30" fill="none" r="20" stroke="cyan" stroke-width="2" /><circle cx="180" cy="30" fill="none" r="20" stroke="green" stroke-width="2" /><circle cx="230" cy="30" fill="none" r="20" stroke="yellow" stroke-width="2" /><circle cx="30" cy="80" fill="none" r="20" stroke="pink" stroke-width="2" /><circle cx="80" cy="80" fill="none" r="20" stroke="green" stroke-width="2" /><circle cx="130" cy="80" fill="none" r="20" stroke="blue" stroke-width="2" /><circle cx="180" cy="80" fill="none" r="20" stroke="black" stroke-width="2" /><circle cx="230" cy="80" fill="none" r="20" stroke="black" stroke-width="2" /><circle cx="30" cy="130" fill="none" r="20" stroke="red" stroke-width="2" /><circle cx="80" cy="130" fill="none" r="20" stroke="cyan" stroke-width="2" /><circle cx="130" cy="130" fill="none" r="20" stroke="yellow" stroke-width="2" /><circle cx="180" cy="130" fill="none" r="20" stroke="magenta" stroke-width="2" /><circle cx="230" cy="130" fill="none" r="20" stroke="black" stroke-width="2" /><circle cx="30" cy="180" fill="none" r="20" stroke="blue" stroke-width="2" /><circle cx="80" cy="180" fill="none" r="20" stroke="cyan" stroke-width="2" /><circle cx="130" cy="180" fill="none" r="20" stroke="blue" stroke-width="2" /><circle cx="180" cy="180" fill="none" r="20" stroke="cyan" stroke-width="2" /><circle cx="230" cy="180" fill="none" r="20" stroke="pink" stroke-width="2" /><circle cx="30" cy="230" fill="none" r="20" stroke="yellow" stroke-width="2" /><circle cx="80" cy="230" fill="none" r="20" stroke="red" stroke-width="2" /><circle cx="130" cy="230" fill="none" r="20" stroke="cyan" stroke-width="2" /><circle cx="180" cy="230" fill="none" r="20" stroke="blue" stroke-width="2" /><circle cx="230" cy="230" fill="none" r="20" stroke="black" stroke-width="2" /></svg>