<?xml version="1.0" encoding="utf-8" ?>
<svg baseProfile="tiny" height="500" version="1.2" width="500" xmlns="http://www.w3.org/2000/svg" xmlns:ev="http://www.w3.org/2001/xml-events" xmlns:xlink="http://www.w3.org/1999/xlink"><defs /><path d="M 284.729635533386 446.96155060244166 A 200 200 0 0 0 421.4334601404224 353.00761498201086" fill="none" stroke="black" stroke-width="2" /><path d="M 414.43818237566813 176.78740424635595 A 180 180 0 0 0 246.85856684128896 70.02741487184957" fill="none" stroke="black" stroke-width="2" /><path d="M 230.50090505517642 91.19261573738845 A 160 160 0 0 0 214.00783130498155 405.8992103656376" fill="none" stroke="black" stroke-width="2" /><path d="M 288.5892298143799 115.42336256863535 A 140 140 0 0 0 112.12691457829087 274.31074487337025" fill="none" stroke="black" stroke-width="2" /><path d="M 320.5342302750968 152.9179606750063 A 120 120 0 0 0 243.71968525084674 130.16445582945113" fill="none" stroke="black" stroke-width="2" /><path d="M 198.49619250899457 335.7167300702112 A 100 100 0 0 0 295.3990499739547 339.1006524188368" fill="none" stroke="black" stroke-width="2" /><path d="M 172.72593389687455 229.29447639179833 A 80 80 0 0 0 186.10915919621658 298.1452018521639" fill="none" stroke="black" stroke-width="2" /><path d="M 199.67976592327454 282.6783421009016 A 60 60 0 1 0 307.0633909777092 231.45898033750316" fill="none" stroke="black" stroke-width="2" /><path d="M 210.60768987951167 256.94592710667723 A 40 40 0 0 0 256.9459271066772 289.39231012048833" fill="none" stroke="black" stroke-width="2" /><path d="M 261.18385806941495 266.5807514511008 A 20 20 0 1 0 247.2165379807987 230.19463862516858" fill="none" stroke="black" stroke-width="2" /></svg>