<?xml version="1.0" encoding="utf-8" ?>
<svg baseProfile="tiny" height="500" version="1.2" width="500" xmlns="http://www.w3.org/2000/svg" xmlns:ev="http://www.w3.org/2001/xml-events" xmlns:xlink="http://www.w3.org/1999/xlink"><defs /><path d="M 355.98385284664096 419.60961923128525 A 200 200 0 1 0 178.32641009093993 63.28391470055965" fill="none" stroke="black" stroke-width="2" /><path d="M 342.70685348380977 95.70988587361978 A 180 180 0 0 0 203.41257188154626 76.1333512679677" fill="none" stroke="black" stroke-width="2" /><path d="M 252.79238502996537 90.0243687749774 A 160 160 0 0 0 103.8327267771839 184.92213710787195" fill="none" stroke="black" stroke-width="2" /><path d="M 199.82848706365797 119.29874029039175 A 140 140 0 0 0 245.1140704616499 389.9147157826734" fill="none" stroke="black" stroke-width="2" /><path d="M 302.6045376146893 357.8552855559 A 120 120 0 1 0 205.04720879009056 138.73793745198552" fill="none" stroke="black" stroke-width="2" /><path d="M 173.3955556881022 314.27876096865396 A 100 100 0 0 0 293.8371146789077 339.87940462991673" fill="none" stroke="black" stroke-width="2" /><path d="M 236.10814578664557 328.78462024097666 A 80 80 0 0 0 327.9496051828188 267.9960843475092" fill="none" stroke="black" stroke-width="2" /><path d="M 303.92764277795004 223.69773119265534 A 60 60 0 0 0 248.95285561376298 190.00913829061653" fill="none" stroke="black" stroke-width="2" /><path d="M 258.9980421737546 211.0251974085906 A 40 40 0 0 0 233.09526953037204 286.252311481466" fill="none" stroke="black" stroke-width="2" /><path d="M 256.5113630891431 268.91037151198634 A 20 20 0 1 0 245.16156208800663 230.59408547448007" fill="none" stroke="black" stroke-width="2" /><circle cx="0" cy="0" fill="red" r="5" stroke="red" /><circle cx="0" cy="500" fill="red" r="5" stroke="red" /><circle cx="500" cy="0" fill="red" r="5" stroke="red" /><circle cx="500" cy="500" fill="red" r="5" stroke="red" /></svg>