<?xml version="1.0" encoding="utf-8" ?>
<svg baseProfile="full" height="550" version="1.1" width="550" xmlns="http://www.w3.org/2000/svg" xmlns:ev="http://www.w3.org/2001/xml-events" xmlns:xlink="http://www.w3.org/1999/xlink"><defs /><line stroke="grey" transform="rotate(28.18819500670349 318.0 42.0)" x1="312" x2="324" y1="36" y2="36" /><line stroke="grey" transform="rotate(28.18819500670349 318.0 42.0)" x1="324" x2="324" y1="36" y2="48" /><line stroke="grey" transform="rotate(28.18819500670349 318.0 42.0)" x1="324" x2="312" y1="48" y2="48" /><line stroke="grey" transform="rotate(28.18819500670349 318.0 42.0)" x1="312" x2="312" y1="48" y2="36" /><line stroke="black" transform="rotate(27.631292222112794 306.0 54.0)" x1="300" x2="312" y1="48" y2="48" /><line stroke="black" transform="rotate(27.631292222112794 306.0 54.0)" x1="312" x2="312" y1="48" y2="60" /><line stroke="black" transform="rotate(27.631292222112794 306.0 54.0)" x1="312" x2="300" y1="60" y2="60" /><rect fill="none" height="12" stroke="yellow" transform="rotate(41.026927091907794 186.0 66.0)" width="12" x="180" y="60" /><line stroke="red" transform="rotate(24.406553758864117 318.0 66.0)" x1="312" x2="324" y1="60" y2="60" /><line stroke="red" transform="rotate(24.406553758864117 318.0 66.0)" x1="324" x2="324" y1="60" y2="72" /><line stroke="red" transform="rotate(24.406553758864117 318.0 66.0)" x1="324" x2="312" y1="72" y2="72" /><line stroke="red" transform="rotate(24.406553758864117 318.0 66.0)" x1="312" x2="312" y1="72" y2="60" /><line stroke="red" transform="rotate(47.198808297920245 150.0 78.0)" x1="144" x2="156" y1="72" y2="72" /><line stroke="red" transform="rotate(47.198808297920245 150.0 78.0)" x1="156" x2="156" y1="72" y2="84" /><line stroke="red" transform="rotate(47.198808297920245 150.0 78.0)" x1="156" x2="144" y1="84" y2="84" /><line stroke="red" transform="rotate(43.93539872428437 186.0 78.0)" x1="180" x2="192" y1="72" y2="72" /><line stroke="red" transform="rotate(43.93539872428437 186.0 78.0)" x1="192" x2="192" y1="72" y2="84" /><line stroke="red" transform="rotate(43.93539872428437 186.0 78.0)" x1="192" x2="180" y1="84" y2="84" /><line stroke="red" transform="rotate(43.93539872428437 186.0 78.0)" x1="180" x2="180" y1="84" y2="72" /><line stroke="grey" transform="rotate(19.843349061446837 402.0 78.0)" x1="396" x2="408" y1="72" y2="72" /><line stroke="grey" transform="rotate(19.843349061446837 402.0 78.0)" x1="408" x2="408" y1="72" y2="84" /><line stroke="grey" transform="rotate(19.843349061446837 402.0 78.0)" x1="408" x2="396" y1="84" y2="84" /><line stroke="grey" transform="rotate(19.843349061446837 402.0 78.0)" x1="396" x2="396" y1="84" y2="72" /><rect fill="none" height="12" stroke="red" transform="rotate(60.909963070116895 42.0 102.0)" width="12" x="36" y="96" /><rect fill="none" height="12" stroke="grey" transform="rotate(58.73615350021509 66.0 102.0)" width="12" x="60" y="96" /><line stroke="grey" transform="rotate(58.73615350021509 66.0 102.0)" x1="60.0" x2="60.0" y1="96" y2="108" /><line stroke="grey" transform="rotate(58.73615350021509 66.0 102.0)" x1="62.0" x2="62.0" y1="96" y2="108" /><line stroke="grey" transform="rotate(58.73615350021509 66.0 102.0)" x1="64.0" x2="64.0" y1="96" y2="108" /><line stroke="grey" transform="rotate(58.73615350021509 66.0 102.0)" x1="66.0" x2="66.0" y1="96" y2="108" /><line stroke="grey" transform="rotate(58.73615350021509 66.0 102.0)" x1="68.0" x2="68.0" y1="96" y2="108" /><line stroke="grey" transform="rotate(58.73615350021509 66.0 102.0)" x1="70.0" x2="70.0" y1="96" y2="108" /><rect fill="none" height="12" stroke="green" transform="rotate(44.32256270975326 174.0 102.0)" width="12" x="168" y="96" /><rect fill="none" height="12" stroke="green" transform="rotate(33.01154773443639 258.0 102.0)" width="12" x="252" y="96" /><rect fill="none" height="12" stroke="green" transform="rotate(18.1760217743226 438.0 102.0)" width="12" x="432" y="96" /><line stroke="green" transform="rotate(18.1760217743226 438.0 102.0)" x1="432" x2="444" y1="96.0" y2="96.0" /><line stroke="green" transform="rotate(18.1760217743226 438.0 102.0)" x1="432" x2="444" y1="98.0" y2="98.0" /><line stroke="green" transform="rotate(18.1760217743226 438.0 102.0)" x1="432" x2="444" y1="100.0" y2="100.0" /><line stroke="green" transform="rotate(18.1760217743226 438.0 102.0)" x1="432" x2="444" y1="102.0" y2="102.0" /><line stroke="green" transform="rotate(18.1760217743226 438.0 102.0)" x1="432" x2="444" y1="104.0" y2="104.0" /><line stroke="green" transform="rotate(18.1760217743226 438.0 102.0)" x1="432" x2="444" y1="106.0" y2="106.0" /><line stroke="black" transform="rotate(57.03969051440168 90.0 114.0)" x1="84" x2="96" y1="108" y2="108" /><line stroke="black" transform="rotate(57.03969051440168 90.0 114.0)" x1="96" x2="96" y1="108" y2="120" /><line stroke="black" transform="rotate(57.03969051440168 90.0 114.0)" x1="96" x2="84" y1="120" y2="120" /><rect fill="none" height="12" stroke="red" transform="rotate(26.458838665593305 342.0 114.0)" width="12" x="336" y="108" /><rect fill="none" height="12" stroke="yellow" transform="rotate(17.479681167397008 522.0 114.0)" width="12" x="516" y="108" /><line stroke="yellow" transform="rotate(17.479681167397008 522.0 114.0)" x1="516.0" x2="516.0" y1="108" y2="120" /><line stroke="yellow" transform="rotate(17.479681167397008 522.0 114.0)" x1="520.0" x2="520.0" y1="108" y2="120" /><line stroke="yellow" transform="rotate(17.479681167397008 522.0 114.0)" x1="524.0" x2="524.0" y1="108" y2="120" /><rect fill="none" height="12" stroke="black" transform="rotate(61.57394638714633 54.0 126.0)" width="12" x="48" y="120" /><line stroke="black" transform="rotate(61.57394638714633 54.0 126.0)" x1="48.0" x2="48.0" y1="120" y2="132" /><line stroke="black" transform="rotate(61.57394638714633 54.0 126.0)" x1="50.0" x2="50.0" y1="120" y2="132" /><line stroke="black" transform="rotate(61.57394638714633 54.0 126.0)" x1="52.0" x2="52.0" y1="120" y2="132" /><line stroke="black" transform="rotate(61.57394638714633 54.0 126.0)" x1="54.0" x2="54.0" y1="120" y2="132" /><line stroke="black" transform="rotate(61.57394638714633 54.0 126.0)" x1="56.0" x2="56.0" y1="120" y2="132" /><line stroke="black" transform="rotate(61.57394638714633 54.0 126.0)" x1="58.0" x2="58.0" y1="120" y2="132" /><rect fill="none" height="12" stroke="yellow" transform="rotate(59.085005289895705 78.0 126.0)" width="12" x="72" y="120" /><line stroke="yellow" transform="rotate(59.085005289895705 78.0 126.0)" x1="72" x2="84" y1="120.0" y2="120.0" /><line stroke="yellow" transform="rotate(59.085005289895705 78.0 126.0)" x1="72" x2="84" y1="122.0" y2="122.0" /><line stroke="yellow" transform="rotate(59.085005289895705 78.0 126.0)" x1="72" x2="84" y1="124.0" y2="124.0" /><line stroke="yellow" transform="rotate(59.085005289895705 78.0 126.0)" x1="72" x2="84" y1="126.0" y2="126.0" /><line stroke="yellow" transform="rotate(59.085005289895705 78.0 126.0)" x1="72" x2="84" y1="128.0" y2="128.0" /><line stroke="yellow" transform="rotate(59.085005289895705 78.0 126.0)" x1="72" x2="84" y1="130.0" y2="130.0" /><rect fill="none" height="12" stroke="yellow" transform="rotate(41.8111624654096 186.0 126.0)" width="12" x="180" y="120" /><line stroke="red" transform="rotate(24.769183653714478 306.0 126.0)" x1="300" x2="312" y1="120" y2="120" /><line stroke="red" transform="rotate(24.769183653714478 306.0 126.0)" x1="312" x2="312" y1="120" y2="132" /><line stroke="red" transform="rotate(24.769183653714478 306.0 126.0)" x1="312" x2="300" y1="132" y2="132" /><rect fill="none" height="12" stroke="yellow" transform="rotate(23.759462050049443 414.0 126.0)" width="12" x="408" y="120" /><line stroke="yellow" transform="rotate(23.759462050049443 414.0 126.0)" x1="408.0" x2="408.0" y1="120" y2="132" /><line stroke="yellow" transform="rotate(23.759462050049443 414.0 126.0)" x1="412.0" x2="412.0" y1="120" y2="132" /><line stroke="yellow" transform="rotate(23.759462050049443 414.0 126.0)" x1="416.0" x2="416.0" y1="120" y2="132" /><rect fill="none" height="12" stroke="green" transform="rotate(22.1176530920217 462.0 126.0)" width="12" x="456" y="120" /><line stroke="green" transform="rotate(22.1176530920217 462.0 126.0)" x1="456" x2="468" y1="120.0" y2="120.0" /><line stroke="green" transform="rotate(22.1176530920217 462.0 126.0)" x1="456" x2="468" y1="122.0" y2="122.0" /><line stroke="green" transform="rotate(22.1176530920217 462.0 126.0)" x1="456" x2="468" y1="124.0" y2="124.0" /><line stroke="green" transform="rotate(22.1176530920217 462.0 126.0)" x1="456" x2="468" y1="126.0" y2="126.0" /><line stroke="green" transform="rotate(22.1176530920217 462.0 126.0)" x1="456" x2="468" y1="128.0" y2="128.0" /><line stroke="green" transform="rotate(22.1176530920217 462.0 126.0)" x1="456" x2="468" y1="130.0" y2="130.0" /><rect fill="none" height="12" stroke="red" transform="rotate(63.577698345153316 42.0 138.0)" width="12" x="36" y="132" /><line stroke="red" transform="rotate(63.577698345153316 42.0 138.0)" x1="36" x2="48" y1="132.0" y2="132.0" /><line stroke="red" transform="rotate(63.577698345153316 42.0 138.0)" x1="36" x2="48" y1="134.0" y2="134.0" /><line stroke="red" transform="rotate(63.577698345153316 42.0 138.0)" x1="36" x2="48" y1="136.0" y2="136.0" /><line stroke="red" transform="rotate(63.577698345153316 42.0 138.0)" x1="36" x2="48" y1="138.0" y2="138.0" /><line stroke="red" transform="rotate(63.577698345153316 42.0 138.0)" x1="36" x2="48" y1="140.0" y2="140.0" /><line stroke="red" transform="rotate(63.577698345153316 42.0 138.0)" x1="36" x2="48" y1="142.0" y2="142.0" /><line stroke="grey" transform="rotate(53.78554313164407 150.0 138.0)" x1="144" x2="156" y1="132" y2="132" /><line stroke="grey" transform="rotate(53.78554313164407 150.0 138.0)" x1="156" x2="156" y1="132" y2="144" /><line stroke="grey" transform="rotate(53.78554313164407 150.0 138.0)" x1="144" x2="144" y1="144" y2="132" /><rect fill="none" height="12" stroke="black" transform="rotate(28.152741347193885 318.0 138.0)" width="12" x="312" y="132" /><rect fill="none" height="12" stroke="green" transform="rotate(15.82741630851049 498.0 138.0)" width="12" x="492" y="132" /><line stroke="green" transform="rotate(15.82741630851049 498.0 138.0)" x1="492" x2="504" y1="132.0" y2="132.0" /><line stroke="green" transform="rotate(15.82741630851049 498.0 138.0)" x1="492" x2="504" y1="136.0" y2="136.0" /><line stroke="green" transform="rotate(15.82741630851049 498.0 138.0)" x1="492" x2="504" y1="140.0" y2="140.0" /><rect fill="none" height="12" stroke="green" transform="rotate(62.13248046954991 90.0 150.0)" width="12" x="84" y="144" /><rect fill="none" height="12" stroke="green" transform="rotate(61.04062935350167 138.0 150.0)" width="12" x="132" y="144" /><rect fill="none" height="12" stroke="black" transform="rotate(22.373659314536635 390.0 150.0)" width="12" x="384" y="144" /><line stroke="black" transform="rotate(19.201434647478894 426.0 150.0)" x1="420" x2="432" y1="144" y2="144" /><line stroke="black" transform="rotate(19.201434647478894 426.0 150.0)" x1="432" x2="432" y1="144" y2="156" /><line stroke="black" transform="rotate(19.201434647478894 426.0 150.0)" x1="432" x2="420" y1="156" y2="156" /><line stroke="black" transform="rotate(19.201434647478894 426.0 150.0)" x1="420" x2="420" y1="156" y2="144" /><line stroke="red" transform="rotate(18.590805655452886 462.0 150.0)" x1="456" x2="468" y1="144" y2="144" /><line stroke="red" transform="rotate(18.590805655452886 462.0 150.0)" x1="468" x2="456" y1="156" y2="156" /><line stroke="red" transform="rotate(18.590805655452886 462.0 150.0)" x1="456" x2="456" y1="156" y2="144" /><line stroke="yellow" transform="rotate(16.704562179419863 486.0 150.0)" x1="480" x2="492" y1="144" y2="144" /><line stroke="yellow" transform="rotate(16.704562179419863 486.0 150.0)" x1="492" x2="480" y1="156" y2="156" /><line stroke="yellow" transform="rotate(16.704562179419863 486.0 150.0)" x1="480" x2="480" y1="156" y2="144" /><line stroke="red" transform="rotate(58.10259095711026 6.0 162.0)" x1="12" x2="12" y1="156" y2="168" /><line stroke="red" transform="rotate(58.10259095711026 6.0 162.0)" x1="12" x2="0" y1="168" y2="168" /><rect fill="none" height="12" stroke="red" transform="rotate(56.00992542445136 102.0 162.0)" width="12" x="96" y="156" /><line stroke="red" transform="rotate(56.00992542445136 102.0 162.0)" x1="96.0" x2="96.0" y1="156" y2="168" /><line stroke="red" transform="rotate(56.00992542445136 102.0 162.0)" x1="98.0" x2="98.0" y1="156" y2="168" /><line stroke="red" transform="rotate(56.00992542445136 102.0 162.0)" x1="100.0" x2="100.0" y1="156" y2="168" /><line stroke="red" transform="rotate(56.00992542445136 102.0 162.0)" x1="102.0" x2="102.0" y1="156" y2="168" /><line stroke="red" transform="rotate(56.00992542445136 102.0 162.0)" x1="104.0" x2="104.0" y1="156" y2="168" /><line stroke="red" transform="rotate(56.00992542445136 102.0 162.0)" x1="106.0" x2="106.0" y1="156" y2="168" /><line stroke="red" transform="rotate(49.118259246753006 138.0 162.0)" x1="132" x2="144" y1="156" y2="156" /><line stroke="red" transform="rotate(49.118259246753006 138.0 162.0)" x1="144" x2="132" y1="168" y2="168" /><line stroke="black" transform="rotate(38.00734331816741 222.0 162.0)" x1="228" x2="228" y1="156" y2="168" /><line stroke="black" transform="rotate(38.00734331816741 222.0 162.0)" x1="228" x2="216" y1="168" y2="168" /><line stroke="black" transform="rotate(38.00734331816741 222.0 162.0)" x1="216" x2="216" y1="168" y2="156" /><line stroke="red" transform="rotate(31.968795173903576 282.0 162.0)" x1="276" x2="288" y1="156" y2="156" /><line stroke="red" transform="rotate(31.968795173903576 282.0 162.0)" x1="288" x2="288" y1="156" y2="168" /><line stroke="red" transform="rotate(31.968795173903576 282.0 162.0)" x1="276" x2="276" y1="168" y2="156" /><line stroke="red" transform="rotate(25.19913314144663 342.0 162.0)" x1="336" x2="348" y1="156" y2="156" /><line stroke="red" transform="rotate(25.19913314144663 342.0 162.0)" x1="348" x2="336" y1="168" y2="168" /><line stroke="red" transform="rotate(25.19913314144663 342.0 162.0)" x1="336" x2="336" y1="168" y2="156" /><line stroke="grey" transform="rotate(21.106826187901536 354.0 162.0)" x1="348" x2="360" y1="156" y2="156" /><line stroke="grey" transform="rotate(21.106826187901536 354.0 162.0)" x1="360" x2="360" y1="156" y2="168" /><line stroke="grey" transform="rotate(21.106826187901536 354.0 162.0)" x1="360" x2="348" y1="168" y2="168" /><line stroke="grey" transform="rotate(21.106826187901536 354.0 162.0)" x1="348" x2="348" y1="168" y2="156" /><rect fill="none" height="12" stroke="yellow" transform="rotate(25.409694681753958 366.0 162.0)" width="12" x="360" y="156" /><line stroke="yellow" transform="rotate(25.409694681753958 366.0 162.0)" x1="360" x2="372" y1="156.0" y2="156.0" /><line stroke="yellow" transform="rotate(25.409694681753958 366.0 162.0)" x1="360" x2="372" y1="158.0" y2="158.0" /><line stroke="yellow" transform="rotate(25.409694681753958 366.0 162.0)" x1="360" x2="372" y1="160.0" y2="160.0" /><line stroke="yellow" transform="rotate(25.409694681753958 366.0 162.0)" x1="360" x2="372" y1="162.0" y2="162.0" /><line stroke="yellow" transform="rotate(25.409694681753958 366.0 162.0)" x1="360" x2="372" y1="164.0" y2="164.0" /><line stroke="yellow" transform="rotate(25.409694681753958 366.0 162.0)" x1="360" x2="372" y1="166.0" y2="166.0" /><rect fill="none" height="12" stroke="yellow" transform="rotate(21.636830569677826 402.0 162.0)" width="12" x="396" y="156" /><line stroke="yellow" transform="rotate(21.636830569677826 402.0 162.0)" x1="396" x2="408" y1="156.0" y2="156.0" /><line stroke="yellow" transform="rotate(21.636830569677826 402.0 162.0)" x1="396" x2="408" y1="158.0" y2="158.0" /><line stroke="yellow" transform="rotate(21.636830569677826 402.0 162.0)" x1="396" x2="408" y1="160.0" y2="160.0" /><line stroke="yellow" transform="rotate(21.636830569677826 402.0 162.0)" x1="396" x2="408" y1="162.0" y2="162.0" /><line stroke="yellow" transform="rotate(21.636830569677826 402.0 162.0)" x1="396" x2="408" y1="164.0" y2="164.0" /><line stroke="yellow" transform="rotate(21.636830569677826 402.0 162.0)" x1="396" x2="408" y1="166.0" y2="166.0" /><rect fill="none" height="12" stroke="red" transform="rotate(24.206313741689982 414.0 162.0)" width="12" x="408" y="156" /><line stroke="red" transform="rotate(24.206313741689982 414.0 162.0)" x1="408" x2="420" y1="156.0" y2="156.0" /><line stroke="red" transform="rotate(24.206313741689982 414.0 162.0)" x1="408" x2="420" y1="158.0" y2="158.0" /><line stroke="red" transform="rotate(24.206313741689982 414.0 162.0)" x1="408" x2="420" y1="160.0" y2="160.0" /><line stroke="red" transform="rotate(24.206313741689982 414.0 162.0)" x1="408" x2="420" y1="162.0" y2="162.0" /><line stroke="red" transform="rotate(24.206313741689982 414.0 162.0)" x1="408" x2="420" y1="164.0" y2="164.0" /><line stroke="red" transform="rotate(24.206313741689982 414.0 162.0)" x1="408" x2="420" y1="166.0" y2="166.0" /><rect fill="none" height="12" stroke="grey" transform="rotate(54.34338411415811 90.0 174.0)" width="12" x="84" y="168" /><line stroke="yellow" transform="rotate(57.55741108271076 102.0 174.0)" x1="96" x2="108" y1="168" y2="168" /><line stroke="yellow" transform="rotate(57.55741108271076 102.0 174.0)" x1="96" x2="96" y1="180" y2="168" /><rect fill="none" height="12" stroke="black" transform="rotate(61.1935919564537 150.0 186.0)" width="12" x="144" y="180" /><rect fill="none" height="12" stroke="grey" transform="rotate(25.076914003859876 366.0 186.0)" width="12" x="360" y="180" /><rect fill="none" height="12" stroke="yellow" transform="rotate(22.236076472857746 378.0 186.0)" width="12" x="372" y="180" /><rect fill="none" height="12" stroke="green" transform="rotate(69.01957380096692 90.0 198.0)" width="12" x="84" y="192" /><rect fill="none" height="12" stroke="grey" transform="rotate(45.36006880825859 198.0 198.0)" width="12" x="192" y="192" /><rect fill="none" height="12" stroke="black" transform="rotate(32.29406161190226 258.0 198.0)" width="12" x="252" y="192" /><rect fill="none" height="12" stroke="red" transform="rotate(32.379900796177566 270.0 198.0)" width="12" x="264" y="192" /><rect fill="none" height="12" stroke="red" transform="rotate(29.901159313072046 282.0 198.0)" width="12" x="276" y="192" /><line stroke="red" transform="rotate(29.901159313072046 282.0 198.0)" x1="276" x2="288" y1="192.0" y2="192.0" /><line stroke="red" transform="rotate(29.901159313072046 282.0 198.0)" x1="276" x2="288" y1="194.0" y2="194.0" /><line stroke="red" transform="rotate(29.901159313072046 282.0 198.0)" x1="276" x2="288" y1="196.0" y2="196.0" /><line stroke="red" transform="rotate(29.901159313072046 282.0 198.0)" x1="276" x2="288" y1="198.0" y2="198.0" /><line stroke="red" transform="rotate(29.901159313072046 282.0 198.0)" x1="276" x2="288" y1="200.0" y2="200.0" /><line stroke="red" transform="rotate(29.901159313072046 282.0 198.0)" x1="276" x2="288" y1="202.0" y2="202.0" /><line stroke="green" transform="rotate(26.78814482351711 294.0 198.0)" x1="288" x2="300" y1="192" y2="192" /><line stroke="green" transform="rotate(26.78814482351711 294.0 198.0)" x1="300" x2="300" y1="192" y2="204" /><line stroke="green" transform="rotate(26.78814482351711 294.0 198.0)" x1="300" x2="288" y1="204" y2="204" /><line stroke="green" transform="rotate(26.78814482351711 294.0 198.0)" x1="288" x2="288" y1="204" y2="192" /><rect fill="none" height="12" stroke="red" transform="rotate(22.868872410339353 366.0 198.0)" width="12" x="360" y="192" /><line stroke="red" transform="rotate(22.868872410339353 366.0 198.0)" x1="360" x2="372" y1="192.0" y2="192.0" /><line stroke="red" transform="rotate(22.868872410339353 366.0 198.0)" x1="360" x2="372" y1="194.0" y2="194.0" /><line stroke="red" transform="rotate(22.868872410339353 366.0 198.0)" x1="360" x2="372" y1="196.0" y2="196.0" /><line stroke="red" transform="rotate(22.868872410339353 366.0 198.0)" x1="360" x2="372" y1="198.0" y2="198.0" /><line stroke="red" transform="rotate(22.868872410339353 366.0 198.0)" x1="360" x2="372" y1="200.0" y2="200.0" /><line stroke="red" transform="rotate(22.868872410339353 366.0 198.0)" x1="360" x2="372" y1="202.0" y2="202.0" /><rect fill="none" height="12" stroke="red" transform="rotate(18.84003108000119 390.0 198.0)" width="12" x="384" y="192" /><rect fill="none" height="12" stroke="red" transform="rotate(22.241269685308882 402.0 198.0)" width="12" x="396" y="192" /><line stroke="green" transform="rotate(18.272753063690892 414.0 198.0)" x1="408" x2="420" y1="192" y2="192" /><line stroke="green" transform="rotate(18.272753063690892 414.0 198.0)" x1="420" x2="408" y1="204" y2="204" /><line stroke="green" transform="rotate(18.272753063690892 414.0 198.0)" x1="408" x2="408" y1="204" y2="192" /><rect fill="none" height="12" stroke="yellow" transform="rotate(68.72547998657417 114.0 210.0)" width="12" x="108" y="204" /><rect fill="none" height="12" stroke="green" transform="rotate(42.979364662023755 246.0 210.0)" width="12" x="240" y="204" /><rect fill="none" height="12" stroke="red" transform="rotate(25.652968249073048 330.0 210.0)" width="12" x="324" y="204" /><line stroke="red" transform="rotate(25.652968249073048 330.0 210.0)" x1="324.0" x2="324.0" y1="204" y2="216" /><line stroke="red" transform="rotate(25.652968249073048 330.0 210.0)" x1="326.0" x2="326.0" y1="204" y2="216" /><line stroke="red" transform="rotate(25.652968249073048 330.0 210.0)" x1="328.0" x2="328.0" y1="204" y2="216" /><line stroke="red" transform="rotate(25.652968249073048 330.0 210.0)" x1="330.0" x2="330.0" y1="204" y2="216" /><line stroke="red" transform="rotate(25.652968249073048 330.0 210.0)" x1="332.0" x2="332.0" y1="204" y2="216" /><line stroke="red" transform="rotate(25.652968249073048 330.0 210.0)" x1="334.0" x2="334.0" y1="204" y2="216" /><line stroke="grey" transform="rotate(20.693646297041145 378.0 210.0)" x1="372" x2="384" y1="204" y2="204" /><line stroke="grey" transform="rotate(20.693646297041145 378.0 210.0)" x1="384" x2="384" y1="204" y2="216" /><line stroke="grey" transform="rotate(20.693646297041145 378.0 210.0)" x1="372" x2="372" y1="216" y2="204" /><line stroke="yellow" transform="rotate(20.674433998052365 390.0 210.0)" x1="384" x2="396" y1="204" y2="204" /><line stroke="yellow" transform="rotate(20.674433998052365 390.0 210.0)" x1="396" x2="396" y1="204" y2="216" /><line stroke="yellow" transform="rotate(20.674433998052365 390.0 210.0)" x1="396" x2="384" y1="216" y2="216" /><line stroke="yellow" transform="rotate(20.674433998052365 390.0 210.0)" x1="384" x2="384" y1="216" y2="204" /><line stroke="grey" transform="rotate(20.28514036308944 402.0 210.0)" x1="396" x2="408" y1="204" y2="204" /><line stroke="grey" transform="rotate(20.28514036308944 402.0 210.0)" x1="408" x2="408" y1="204" y2="216" /><line stroke="grey" transform="rotate(20.28514036308944 402.0 210.0)" x1="396" x2="396" y1="216" y2="204" /><rect fill="none" height="12" stroke="grey" transform="rotate(28.48468444817512 270.0 222.0)" width="12" x="264" y="216" /><rect fill="none" height="12" stroke="yellow" transform="rotate(23.248906007290685 330.0 222.0)" width="12" x="324" y="216" /><line stroke="yellow" transform="rotate(23.248906007290685 330.0 222.0)" x1="324.0" x2="324.0" y1="216" y2="228" /><line stroke="yellow" transform="rotate(23.248906007290685 330.0 222.0)" x1="328.0" x2="328.0" y1="216" y2="228" /><line stroke="yellow" transform="rotate(23.248906007290685 330.0 222.0)" x1="332.0" x2="332.0" y1="216" y2="228" /><line stroke="yellow" transform="rotate(19.024827670315446 426.0 222.0)" x1="420" x2="432" y1="216" y2="216" /><line stroke="yellow" transform="rotate(19.024827670315446 426.0 222.0)" x1="432" x2="432" y1="216" y2="228" /><line stroke="yellow" transform="rotate(19.024827670315446 426.0 222.0)" x1="432" x2="420" y1="228" y2="228" /><line stroke="black" transform="rotate(42.2781402449342 234.0 234.0)" x1="228" x2="240" y1="228" y2="228" /><line stroke="black" transform="rotate(42.2781402449342 234.0 234.0)" x1="240" x2="228" y1="240" y2="240" /><line stroke="black" transform="rotate(42.2781402449342 234.0 234.0)" x1="228" x2="228" y1="240" y2="228" /><line stroke="green" transform="rotate(39.57468896683736 246.0 234.0)" x1="240" x2="252" y1="228" y2="228" /><line stroke="green" transform="rotate(39.57468896683736 246.0 234.0)" x1="252" x2="240" y1="240" y2="240" /><rect fill="none" height="12" stroke="grey" transform="rotate(18.257695321070443 414.0 234.0)" width="12" x="408" y="228" /><line stroke="grey" transform="rotate(18.257695321070443 414.0 234.0)" x1="408.0" x2="408.0" y1="228" y2="240" /><line stroke="grey" transform="rotate(18.257695321070443 414.0 234.0)" x1="410.0" x2="410.0" y1="228" y2="240" /><line stroke="grey" transform="rotate(18.257695321070443 414.0 234.0)" x1="412.0" x2="412.0" y1="228" y2="240" /><line stroke="grey" transform="rotate(18.257695321070443 414.0 234.0)" x1="414.0" x2="414.0" y1="228" y2="240" /><line stroke="grey" transform="rotate(18.257695321070443 414.0 234.0)" x1="416.0" x2="416.0" y1="228" y2="240" /><line stroke="grey" transform="rotate(18.257695321070443 414.0 234.0)" x1="418.0" x2="418.0" y1="228" y2="240" /><rect fill="none" height="12" stroke="black" transform="rotate(16.13200310157461 450.0 234.0)" width="12" x="444" y="228" /><line stroke="black" transform="rotate(74.18028589725549 78.0 246.0)" x1="84" x2="84" y1="240" y2="252" /><line stroke="black" transform="rotate(74.18028589725549 78.0 246.0)" x1="84" x2="72" y1="252" y2="252" /><line stroke="black" transform="rotate(74.18028589725549 78.0 246.0)" x1="72" x2="72" y1="252" y2="240" /><line stroke="red" transform="rotate(68.94598102375508 90.0 246.0)" x1="84" x2="96" y1="240" y2="240" /><line stroke="red" transform="rotate(68.94598102375508 90.0 246.0)" x1="96" x2="96" y1="240" y2="252" /><line stroke="red" transform="rotate(68.94598102375508 90.0 246.0)" x1="96" x2="84" y1="252" y2="252" /><line stroke="red" transform="rotate(68.94598102375508 90.0 246.0)" x1="84" x2="84" y1="252" y2="240" /><rect fill="none" height="12" stroke="black" transform="rotate(48.67047025315348 222.0 246.0)" width="12" x="216" y="240" /><line stroke="red" transform="rotate(30.519006348870136 258.0 246.0)" x1="264" x2="264" y1="240" y2="252" /><line stroke="red" transform="rotate(30.519006348870136 258.0 246.0)" x1="264" x2="252" y1="252" y2="252" /><line stroke="red" transform="rotate(30.519006348870136 258.0 246.0)" x1="252" x2="252" y1="252" y2="240" /><line stroke="green" transform="rotate(26.861894046353278 282.0 246.0)" x1="288" x2="276" y1="252" y2="252" /><line stroke="green" transform="rotate(26.861894046353278 282.0 246.0)" x1="276" x2="276" y1="252" y2="240" /><rect fill="none" height="12" stroke="green" transform="rotate(22.411282511812853 330.0 246.0)" width="12" x="324" y="240" /><rect fill="none" height="12" stroke="grey" transform="rotate(21.103533263293496 390.0 246.0)" width="12" x="384" y="240" /><line stroke="grey" transform="rotate(21.103533263293496 390.0 246.0)" x1="384" x2="396" y1="240.0" y2="240.0" /><line stroke="grey" transform="rotate(21.103533263293496 390.0 246.0)" x1="384" x2="396" y1="244.0" y2="244.0" /><line stroke="grey" transform="rotate(21.103533263293496 390.0 246.0)" x1="384" x2="396" y1="248.0" y2="248.0" /><rect fill="none" height="12" stroke="grey" transform="rotate(15.915223895408204 402.0 246.0)" width="12" x="396" y="240" /><line stroke="grey" transform="rotate(15.915223895408204 402.0 246.0)" x1="396.0" x2="396.0" y1="240" y2="252" /><line stroke="grey" transform="rotate(15.915223895408204 402.0 246.0)" x1="400.0" x2="400.0" y1="240" y2="252" /><line stroke="grey" transform="rotate(15.915223895408204 402.0 246.0)" x1="404.0" x2="404.0" y1="240" y2="252" /><rect fill="none" height="12" stroke="grey" transform="rotate(12.954887483873271 498.0 246.0)" width="12" x="492" y="240" /><line stroke="grey" transform="rotate(12.954887483873271 498.0 246.0)" x1="492.0" x2="492.0" y1="240" y2="252" /><line stroke="grey" transform="rotate(12.954887483873271 498.0 246.0)" x1="494.0" x2="494.0" y1="240" y2="252" /><line stroke="grey" transform="rotate(12.954887483873271 498.0 246.0)" x1="496.0" x2="496.0" y1="240" y2="252" /><line stroke="grey" transform="rotate(12.954887483873271 498.0 246.0)" x1="498.0" x2="498.0" y1="240" y2="252" /><line stroke="grey" transform="rotate(12.954887483873271 498.0 246.0)" x1="500.0" x2="500.0" y1="240" y2="252" /><line stroke="grey" transform="rotate(12.954887483873271 498.0 246.0)" x1="502.0" x2="502.0" y1="240" y2="252" /><line stroke="black" transform="rotate(49.1797329178623 210.0 258.0)" x1="216" x2="216" y1="252" y2="264" /><line stroke="black" transform="rotate(49.1797329178623 210.0 258.0)" x1="216" x2="204" y1="264" y2="264" /><line stroke="black" transform="rotate(49.1797329178623 210.0 258.0)" x1="204" x2="204" y1="264" y2="252" /><rect fill="none" height="12" stroke="black" transform="rotate(22.367168237769985 330.0 258.0)" width="12" x="324" y="252" /><rect fill="none" height="12" stroke="grey" transform="rotate(17.072137480006095 450.0 258.0)" width="12" x="444" y="252" /><line stroke="grey" transform="rotate(17.072137480006095 450.0 258.0)" x1="444.0" x2="444.0" y1="252" y2="264" /><line stroke="grey" transform="rotate(17.072137480006095 450.0 258.0)" x1="446.0" x2="446.0" y1="252" y2="264" /><line stroke="grey" transform="rotate(17.072137480006095 450.0 258.0)" x1="448.0" x2="448.0" y1="252" y2="264" /><line stroke="grey" transform="rotate(17.072137480006095 450.0 258.0)" x1="450.0" x2="450.0" y1="252" y2="264" /><line stroke="grey" transform="rotate(17.072137480006095 450.0 258.0)" x1="452.0" x2="452.0" y1="252" y2="264" /><line stroke="grey" transform="rotate(17.072137480006095 450.0 258.0)" x1="454.0" x2="454.0" y1="252" y2="264" /><rect fill="none" height="12" stroke="grey" transform="rotate(10.964295091561246 534.0 258.0)" width="12" x="528" y="252" /><line stroke="grey" transform="rotate(10.964295091561246 534.0 258.0)" x1="528" x2="540" y1="252.0" y2="252.0" /><line stroke="grey" transform="rotate(10.964295091561246 534.0 258.0)" x1="528" x2="540" y1="256.0" y2="256.0" /><line stroke="grey" transform="rotate(10.964295091561246 534.0 258.0)" x1="528" x2="540" y1="260.0" y2="260.0" /><line stroke="yellow" transform="rotate(67.76302113106318 174.0 270.0)" x1="180" x2="180" y1="264" y2="276" /><line stroke="yellow" transform="rotate(67.76302113106318 174.0 270.0)" x1="180" x2="168" y1="276" y2="276" /><line stroke="yellow" transform="rotate(67.76302113106318 174.0 270.0)" x1="168" x2="168" y1="276" y2="264" /><rect fill="none" height="12" stroke="black" transform="rotate(46.70958016369505 210.0 270.0)" width="12" x="204" y="264" /><rect fill="none" height="12" stroke="grey" transform="rotate(41.75020665855072 234.0 270.0)" width="12" x="228" y="264" /><line stroke="red" transform="rotate(18.3479114540545 390.0 270.0)" x1="384" x2="396" y1="264" y2="264" /><line stroke="red" transform="rotate(18.3479114540545 390.0 270.0)" x1="396" x2="396" y1="264" y2="276" /><line stroke="red" transform="rotate(18.3479114540545 390.0 270.0)" x1="396" x2="384" y1="276" y2="276" /><line stroke="red" transform="rotate(18.3479114540545 390.0 270.0)" x1="384" x2="384" y1="276" y2="264" /><rect fill="none" height="12" stroke="grey" transform="rotate(15.264333322492512 462.0 270.0)" width="12" x="456" y="264" /><line stroke="grey" transform="rotate(15.264333322492512 462.0 270.0)" x1="456" x2="468" y1="264.0" y2="264.0" /><line stroke="grey" transform="rotate(15.264333322492512 462.0 270.0)" x1="456" x2="468" y1="266.0" y2="266.0" /><line stroke="grey" transform="rotate(15.264333322492512 462.0 270.0)" x1="456" x2="468" y1="268.0" y2="268.0" /><line stroke="grey" transform="rotate(15.264333322492512 462.0 270.0)" x1="456" x2="468" y1="270.0" y2="270.0" /><line stroke="grey" transform="rotate(15.264333322492512 462.0 270.0)" x1="456" x2="468" y1="272.0" y2="272.0" /><line stroke="grey" transform="rotate(15.264333322492512 462.0 270.0)" x1="456" x2="468" y1="274.0" y2="274.0" /><rect fill="none" height="12" stroke="red" transform="rotate(40.78668480936261 246.0 282.0)" width="12" x="240" y="276" /><line stroke="grey" transform="rotate(14.970397243921022 426.0 282.0)" x1="432" x2="432" y1="276" y2="288" /><line stroke="grey" transform="rotate(14.970397243921022 426.0 282.0)" x1="432" x2="420" y1="288" y2="288" /><line stroke="grey" transform="rotate(14.970397243921022 426.0 282.0)" x1="420" x2="420" y1="288" y2="276" /><line stroke="grey" transform="rotate(14.325853885308145 438.0 282.0)" x1="432" x2="444" y1="276" y2="276" /><line stroke="grey" transform="rotate(14.325853885308145 438.0 282.0)" x1="444" x2="444" y1="276" y2="288" /><line stroke="grey" transform="rotate(14.325853885308145 438.0 282.0)" x1="444" x2="432" y1="288" y2="288" /><line stroke="grey" transform="rotate(14.325853885308145 438.0 282.0)" x1="432" x2="432" y1="288" y2="276" /><line stroke="green" transform="rotate(81.35875648996341 18.0 294.0)" x1="12" x2="24" y1="288" y2="288" /><line stroke="green" transform="rotate(81.35875648996341 18.0 294.0)" x1="24" x2="12" y1="300" y2="300" /><line stroke="green" transform="rotate(81.35875648996341 18.0 294.0)" x1="12" x2="12" y1="300" y2="288" /><rect fill="none" height="12" stroke="yellow" transform="rotate(51.01786034489276 198.0 294.0)" width="12" x="192" y="288" /><rect fill="none" height="12" stroke="grey" transform="rotate(42.112113007496234 246.0 294.0)" width="12" x="240" y="288" /><line stroke="red" transform="rotate(32.30147960831684 258.0 294.0)" x1="252" x2="264" y1="288" y2="288" /><line stroke="black" transform="rotate(29.75807033874696 270.0 294.0)" x1="276" x2="276" y1="288" y2="300" /><line stroke="black" transform="rotate(29.75807033874696 270.0 294.0)" x1="276" x2="264" y1="300" y2="300" /><line stroke="green" transform="rotate(19.077011760138852 378.0 294.0)" x1="372" x2="384" y1="288" y2="288" /><line stroke="green" transform="rotate(19.077011760138852 378.0 294.0)" x1="384" x2="384" y1="288" y2="300" /><rect fill="none" height="12" stroke="yellow" transform="rotate(13.830950205037743 438.0 294.0)" width="12" x="432" y="288" /><line stroke="yellow" transform="rotate(13.830950205037743 438.0 294.0)" x1="432.0" x2="432.0" y1="288" y2="300" /><line stroke="yellow" transform="rotate(13.830950205037743 438.0 294.0)" x1="434.0" x2="434.0" y1="288" y2="300" /><line stroke="yellow" transform="rotate(13.830950205037743 438.0 294.0)" x1="436.0" x2="436.0" y1="288" y2="300" /><line stroke="yellow" transform="rotate(13.830950205037743 438.0 294.0)" x1="438.0" x2="438.0" y1="288" y2="300" /><line stroke="yellow" transform="rotate(13.830950205037743 438.0 294.0)" x1="440.0" x2="440.0" y1="288" y2="300" /><line stroke="yellow" transform="rotate(13.830950205037743 438.0 294.0)" x1="442.0" x2="442.0" y1="288" y2="300" /><line stroke="black" transform="rotate(45.991439265554476 210.0 306.0)" x1="204" x2="216" y1="300" y2="300" /><line stroke="black" transform="rotate(45.991439265554476 210.0 306.0)" x1="216" x2="216" y1="300" y2="312" /><line stroke="black" transform="rotate(45.991439265554476 210.0 306.0)" x1="216" x2="204" y1="312" y2="312" /><line stroke="black" transform="rotate(45.991439265554476 210.0 306.0)" x1="204" x2="204" y1="312" y2="300" /><rect fill="none" height="12" stroke="grey" transform="rotate(28.93752490739707 282.0 306.0)" width="12" x="276" y="300" /><line stroke="grey" transform="rotate(28.93752490739707 282.0 306.0)" x1="276.0" x2="276.0" y1="300" y2="312" /><line stroke="grey" transform="rotate(28.93752490739707 282.0 306.0)" x1="278.0" x2="278.0" y1="300" y2="312" /><line stroke="grey" transform="rotate(28.93752490739707 282.0 306.0)" x1="280.0" x2="280.0" y1="300" y2="312" /><line stroke="grey" transform="rotate(28.93752490739707 282.0 306.0)" x1="282.0" x2="282.0" y1="300" y2="312" /><line stroke="grey" transform="rotate(28.93752490739707 282.0 306.0)" x1="284.0" x2="284.0" y1="300" y2="312" /><line stroke="grey" transform="rotate(28.93752490739707 282.0 306.0)" x1="286.0" x2="286.0" y1="300" y2="312" /><rect fill="none" height="12" stroke="green" transform="rotate(20.128132277927882 390.0 306.0)" width="12" x="384" y="300" /><line stroke="black" transform="rotate(23.60075916201224 402.0 306.0)" x1="396" x2="408" y1="300" y2="300" /><line stroke="black" transform="rotate(23.60075916201224 402.0 306.0)" x1="408" x2="408" y1="300" y2="312" /><line stroke="black" transform="rotate(23.60075916201224 402.0 306.0)" x1="408" x2="396" y1="312" y2="312" /><line stroke="black" transform="rotate(23.60075916201224 402.0 306.0)" x1="396" x2="396" y1="312" y2="300" /><rect fill="none" height="12" stroke="red" transform="rotate(21.499365560229837 426.0 306.0)" width="12" x="420" y="300" /><line stroke="red" transform="rotate(21.499365560229837 426.0 306.0)" x1="420" x2="432" y1="300.0" y2="300.0" /><line stroke="red" transform="rotate(21.499365560229837 426.0 306.0)" x1="420" x2="432" y1="302.0" y2="302.0" /><line stroke="red" transform="rotate(21.499365560229837 426.0 306.0)" x1="420" x2="432" y1="304.0" y2="304.0" /><line stroke="red" transform="rotate(21.499365560229837 426.0 306.0)" x1="420" x2="432" y1="306.0" y2="306.0" /><line stroke="red" transform="rotate(21.499365560229837 426.0 306.0)" x1="420" x2="432" y1="308.0" y2="308.0" /><line stroke="red" transform="rotate(21.499365560229837 426.0 306.0)" x1="420" x2="432" y1="310.0" y2="310.0" /><line stroke="grey" transform="rotate(18.955555009104824 438.0 306.0)" x1="432" x2="444" y1="300" y2="300" /><line stroke="grey" transform="rotate(18.955555009104824 438.0 306.0)" x1="444" x2="444" y1="300" y2="312" /><line stroke="grey" transform="rotate(18.955555009104824 438.0 306.0)" x1="432" x2="432" y1="312" y2="300" /><rect fill="none" height="12" stroke="green" transform="rotate(29.411308068654034 306.0 318.0)" width="12" x="300" y="312" /><line stroke="green" transform="rotate(29.411308068654034 306.0 318.0)" x1="300.0" x2="300.0" y1="312" y2="324" /><line stroke="green" transform="rotate(29.411308068654034 306.0 318.0)" x1="304.0" x2="304.0" y1="312" y2="324" /><line stroke="green" transform="rotate(29.411308068654034 306.0 318.0)" x1="308.0" x2="308.0" y1="312" y2="324" /><line stroke="black" transform="rotate(59.389960466447405 198.0 330.0)" x1="192" x2="204" y1="324" y2="324" /><line stroke="black" transform="rotate(59.389960466447405 198.0 330.0)" x1="204" x2="204" y1="324" y2="336" /><line stroke="black" transform="rotate(59.389960466447405 198.0 330.0)" x1="204" x2="192" y1="336" y2="336" /><line stroke="black" transform="rotate(59.389960466447405 198.0 330.0)" x1="192" x2="192" y1="336" y2="324" /><rect fill="none" height="12" stroke="red" transform="rotate(59.90086054194307 210.0 330.0)" width="12" x="204" y="324" /><line stroke="yellow" transform="rotate(21.710412500925184 426.0 330.0)" x1="432" x2="432" y1="324" y2="336" /><line stroke="yellow" transform="rotate(21.710412500925184 426.0 330.0)" x1="420" x2="420" y1="336" y2="324" /><rect fill="none" height="12" stroke="yellow" transform="rotate(13.31438226615884 534.0 330.0)" width="12" x="528" y="324" /><line stroke="yellow" transform="rotate(13.31438226615884 534.0 330.0)" x1="528" x2="540" y1="324.0" y2="324.0" /><line stroke="yellow" transform="rotate(13.31438226615884 534.0 330.0)" x1="528" x2="540" y1="326.0" y2="326.0" /><line stroke="yellow" transform="rotate(13.31438226615884 534.0 330.0)" x1="528" x2="540" y1="328.0" y2="328.0" /><line stroke="yellow" transform="rotate(13.31438226615884 534.0 330.0)" x1="528" x2="540" y1="330.0" y2="330.0" /><line stroke="yellow" transform="rotate(13.31438226615884 534.0 330.0)" x1="528" x2="540" y1="332.0" y2="332.0" /><line stroke="yellow" transform="rotate(13.31438226615884 534.0 330.0)" x1="528" x2="540" y1="334.0" y2="334.0" /><rect fill="none" height="12" stroke="red" transform="rotate(46.71186403748201 222.0 342.0)" width="12" x="216" y="336" /><rect fill="none" height="12" stroke="red" transform="rotate(37.42728733037598 258.0 342.0)" width="12" x="252" y="336" /><line stroke="yellow" transform="rotate(27.61733217266297 390.0 342.0)" x1="384" x2="396" y1="336" y2="336" /><line stroke="yellow" transform="rotate(27.61733217266297 390.0 342.0)" x1="396" x2="396" y1="336" y2="348" /><line stroke="yellow" transform="rotate(27.61733217266297 390.0 342.0)" x1="396" x2="384" y1="348" y2="348" /><line stroke="yellow" transform="rotate(27.61733217266297 390.0 342.0)" x1="384" x2="384" y1="348" y2="336" /><rect fill="none" height="12" stroke="yellow" transform="rotate(33.07520075757714 318.0 354.0)" width="12" x="312" y="348" /><rect fill="none" height="12" stroke="green" transform="rotate(21.94196739937127 438.0 354.0)" width="12" x="432" y="348" /><line stroke="green" transform="rotate(21.94196739937127 438.0 354.0)" x1="432" x2="444" y1="348.0" y2="348.0" /><line stroke="green" transform="rotate(21.94196739937127 438.0 354.0)" x1="432" x2="444" y1="352.0" y2="352.0" /><line stroke="green" transform="rotate(21.94196739937127 438.0 354.0)" x1="432" x2="444" y1="356.0" y2="356.0" /><rect fill="none" height="12" stroke="grey" transform="rotate(79.19615292575303 42.0 366.0)" width="12" x="36" y="360" /><rect fill="none" height="12" stroke="green" transform="rotate(18.379594298741928 486.0 366.0)" width="12" x="480" y="360" /><line stroke="green" transform="rotate(18.379594298741928 486.0 366.0)" x1="480" x2="492" y1="360.0" y2="360.0" /><line stroke="green" transform="rotate(18.379594298741928 486.0 366.0)" x1="480" x2="492" y1="364.0" y2="364.0" /><line stroke="green" transform="rotate(18.379594298741928 486.0 366.0)" x1="480" x2="492" y1="368.0" y2="368.0" /><rect fill="none" height="12" stroke="yellow" transform="rotate(19.246420821332816 510.0 366.0)" width="12" x="504" y="360" /><line stroke="yellow" transform="rotate(19.246420821332816 510.0 366.0)" x1="504.0" x2="504.0" y1="360" y2="372" /><line stroke="yellow" transform="rotate(19.246420821332816 510.0 366.0)" x1="508.0" x2="508.0" y1="360" y2="372" /><line stroke="yellow" transform="rotate(19.246420821332816 510.0 366.0)" x1="512.0" x2="512.0" y1="360" y2="372" /><rect fill="none" height="12" stroke="grey" transform="rotate(57.7210144328185 174.0 378.0)" width="12" x="168" y="372" /><line stroke="red" transform="rotate(27.468078794919904 330.0 378.0)" x1="324" x2="336" y1="372" y2="372" /><line stroke="red" transform="rotate(27.468078794919904 330.0 378.0)" x1="336" x2="336" y1="372" y2="384" /><line stroke="red" transform="rotate(27.468078794919904 330.0 378.0)" x1="336" x2="324" y1="384" y2="384" /><line stroke="red" transform="rotate(27.468078794919904 330.0 378.0)" x1="324" x2="324" y1="384" y2="372" /><line stroke="grey" transform="rotate(30.722564916554983 342.0 378.0)" x1="336" x2="348" y1="372" y2="372" /><rect fill="none" height="12" stroke="green" transform="rotate(28.010193205190646 378.0 378.0)" width="12" x="372" y="372" /><rect fill="none" height="12" stroke="green" transform="rotate(17.863826462501976 486.0 378.0)" width="12" x="480" y="372" /><rect fill="none" height="12" stroke="black" transform="rotate(19.420010484057098 510.0 378.0)" width="12" x="504" y="372" /><line stroke="black" transform="rotate(19.420010484057098 510.0 378.0)" x1="504" x2="516" y1="372.0" y2="372.0" /><line stroke="black" transform="rotate(19.420010484057098 510.0 378.0)" x1="504" x2="516" y1="376.0" y2="376.0" /><line stroke="black" transform="rotate(19.420010484057098 510.0 378.0)" x1="504" x2="516" y1="380.0" y2="380.0" /><line stroke="red" transform="rotate(78.4148965045264 114.0 390.0)" x1="108" x2="120" y1="384" y2="384" /><line stroke="red" transform="rotate(78.4148965045264 114.0 390.0)" x1="120" x2="120" y1="384" y2="396" /><line stroke="red" transform="rotate(78.4148965045264 114.0 390.0)" x1="120" x2="108" y1="396" y2="396" /><line stroke="red" transform="rotate(78.4148965045264 114.0 390.0)" x1="108" x2="108" y1="396" y2="384" /><rect fill="none" height="12" stroke="black" transform="rotate(19.22097469682186 462.0 390.0)" width="12" x="456" y="384" /><line stroke="black" transform="rotate(19.22097469682186 462.0 390.0)" x1="456.0" x2="456.0" y1="384" y2="396" /><line stroke="black" transform="rotate(19.22097469682186 462.0 390.0)" x1="458.0" x2="458.0" y1="384" y2="396" /><line stroke="black" transform="rotate(19.22097469682186 462.0 390.0)" x1="460.0" x2="460.0" y1="384" y2="396" /><line stroke="black" transform="rotate(19.22097469682186 462.0 390.0)" x1="462.0" x2="462.0" y1="384" y2="396" /><line stroke="black" transform="rotate(19.22097469682186 462.0 390.0)" x1="464.0" x2="464.0" y1="384" y2="396" /><line stroke="black" transform="rotate(19.22097469682186 462.0 390.0)" x1="466.0" x2="466.0" y1="384" y2="396" /><rect fill="none" height="12" stroke="black" transform="rotate(19.704243619390954 510.0 390.0)" width="12" x="504" y="384" /><line stroke="black" transform="rotate(19.704243619390954 510.0 390.0)" x1="504" x2="516" y1="384.0" y2="384.0" /><line stroke="black" transform="rotate(19.704243619390954 510.0 390.0)" x1="504" x2="516" y1="388.0" y2="388.0" /><line stroke="black" transform="rotate(19.704243619390954 510.0 390.0)" x1="504" x2="516" y1="392.0" y2="392.0" /><rect fill="none" height="12" stroke="red" transform="rotate(52.663481364195974 210.0 402.0)" width="12" x="204" y="396" /><line stroke="green" transform="rotate(30.4910694127254 390.0 402.0)" x1="396" x2="384" y1="408" y2="408" /><line stroke="green" transform="rotate(30.4910694127254 390.0 402.0)" x1="384" x2="384" y1="408" y2="396" /><rect fill="none" height="12" stroke="grey" transform="rotate(19.494615519759627 450.0 402.0)" width="12" x="444" y="396" /><line stroke="red" transform="rotate(73.26746482233891 78.0 414.0)" x1="72" x2="84" y1="408" y2="408" /><line stroke="red" transform="rotate(73.26746482233891 78.0 414.0)" x1="84" x2="84" y1="408" y2="420" /><line stroke="red" transform="rotate(73.26746482233891 78.0 414.0)" x1="84" x2="72" y1="420" y2="420" /><line stroke="red" transform="rotate(73.26746482233891 78.0 414.0)" x1="72" x2="72" y1="420" y2="408" /><rect fill="none" height="12" stroke="green" transform="rotate(39.98818874705158 270.0 414.0)" width="12" x="264" y="408" /><rect fill="none" height="12" stroke="green" transform="rotate(35.11143692693014 354.0 414.0)" width="12" x="348" y="408" /><line stroke="green" transform="rotate(35.11143692693014 354.0 414.0)" x1="348" x2="360" y1="408.0" y2="408.0" /><line stroke="green" transform="rotate(35.11143692693014 354.0 414.0)" x1="348" x2="360" y1="410.0" y2="410.0" /><line stroke="green" transform="rotate(35.11143692693014 354.0 414.0)" x1="348" x2="360" y1="412.0" y2="412.0" /><line stroke="green" transform="rotate(35.11143692693014 354.0 414.0)" x1="348" x2="360" y1="414.0" y2="414.0" /><line stroke="green" transform="rotate(35.11143692693014 354.0 414.0)" x1="348" x2="360" y1="416.0" y2="416.0" /><line stroke="green" transform="rotate(35.11143692693014 354.0 414.0)" x1="348" x2="360" y1="418.0" y2="418.0" /><rect fill="none" height="12" stroke="red" transform="rotate(28.180709257540585 450.0 414.0)" width="12" x="444" y="408" /><line stroke="red" transform="rotate(28.180709257540585 450.0 414.0)" x1="444.0" x2="444.0" y1="408" y2="420" /><line stroke="red" transform="rotate(28.180709257540585 450.0 414.0)" x1="446.0" x2="446.0" y1="408" y2="420" /><line stroke="red" transform="rotate(28.180709257540585 450.0 414.0)" x1="448.0" x2="448.0" y1="408" y2="420" /><line stroke="red" transform="rotate(28.180709257540585 450.0 414.0)" x1="450.0" x2="450.0" y1="408" y2="420" /><line stroke="red" transform="rotate(28.180709257540585 450.0 414.0)" x1="452.0" x2="452.0" y1="408" y2="420" /><line stroke="red" transform="rotate(28.180709257540585 450.0 414.0)" x1="454.0" x2="454.0" y1="408" y2="420" /><rect fill="none" height="12" stroke="black" transform="rotate(21.16728939119437 486.0 414.0)" width="12" x="480" y="408" /><line stroke="black" transform="rotate(21.16728939119437 486.0 414.0)" x1="480.0" x2="480.0" y1="408" y2="420" /><line stroke="black" transform="rotate(21.16728939119437 486.0 414.0)" x1="484.0" x2="484.0" y1="408" y2="420" /><line stroke="black" transform="rotate(21.16728939119437 486.0 414.0)" x1="488.0" x2="488.0" y1="408" y2="420" /><rect fill="none" height="12" stroke="grey" transform="rotate(18.47005973983477 534.0 414.0)" width="12" x="528" y="408" /><line stroke="grey" transform="rotate(18.47005973983477 534.0 414.0)" x1="528" x2="540" y1="408.0" y2="408.0" /><line stroke="grey" transform="rotate(18.47005973983477 534.0 414.0)" x1="528" x2="540" y1="412.0" y2="412.0" /><line stroke="grey" transform="rotate(18.47005973983477 534.0 414.0)" x1="528" x2="540" y1="416.0" y2="416.0" /><rect fill="none" height="12" stroke="black" transform="rotate(67.11709385452113 30.0 426.0)" width="12" x="24" y="420" /><rect fill="none" height="12" stroke="yellow" transform="rotate(46.09497313650699 234.0 426.0)" width="12" x="228" y="420" /><rect fill="none" height="12" stroke="grey" transform="rotate(37.141675073126194 294.0 426.0)" width="12" x="288" y="420" /><rect fill="none" height="12" stroke="grey" transform="rotate(33.55237823002033 378.0 426.0)" width="12" x="372" y="420" /><rect fill="none" height="12" stroke="grey" transform="rotate(23.62862471114593 450.0 426.0)" width="12" x="444" y="420" /><line stroke="grey" transform="rotate(23.62862471114593 450.0 426.0)" x1="444" x2="456" y1="420.0" y2="420.0" /><line stroke="grey" transform="rotate(23.62862471114593 450.0 426.0)" x1="444" x2="456" y1="424.0" y2="424.0" /><line stroke="grey" transform="rotate(23.62862471114593 450.0 426.0)" x1="444" x2="456" y1="428.0" y2="428.0" /><rect fill="none" height="12" stroke="red" transform="rotate(17.5793501213595 534.0 426.0)" width="12" x="528" y="420" /><line stroke="red" transform="rotate(17.5793501213595 534.0 426.0)" x1="528" x2="540" y1="420.0" y2="420.0" /><line stroke="red" transform="rotate(17.5793501213595 534.0 426.0)" x1="528" x2="540" y1="424.0" y2="424.0" /><line stroke="red" transform="rotate(17.5793501213595 534.0 426.0)" x1="528" x2="540" y1="428.0" y2="428.0" /><line stroke="yellow" transform="rotate(50.91669285459341 222.0 438.0)" x1="228" x2="228" y1="432" y2="444" /><line stroke="yellow" transform="rotate(50.91669285459341 222.0 438.0)" x1="228" x2="216" y1="444" y2="444" /><line stroke="yellow" transform="rotate(50.91669285459341 222.0 438.0)" x1="216" x2="216" y1="444" y2="432" /><line stroke="yellow" transform="rotate(48.93505522550669 234.0 438.0)" x1="228" x2="240" y1="432" y2="432" /><line stroke="yellow" transform="rotate(48.93505522550669 234.0 438.0)" x1="240" x2="240" y1="432" y2="444" /><line stroke="yellow" transform="rotate(48.93505522550669 234.0 438.0)" x1="240" x2="228" y1="444" y2="444" /><line stroke="yellow" transform="rotate(48.93505522550669 234.0 438.0)" x1="228" x2="228" y1="444" y2="432" /><line stroke="red" transform="rotate(41.52705205018275 294.0 438.0)" x1="300" x2="300" y1="432" y2="444" /><line stroke="red" transform="rotate(41.52705205018275 294.0 438.0)" x1="288" x2="288" y1="444" y2="432" /><rect fill="none" height="12" stroke="red" transform="rotate(34.369878437591886 306.0 438.0)" width="12" x="300" y="432" /><rect fill="none" height="12" stroke="grey" transform="rotate(28.949039366574308 378.0 438.0)" width="12" x="372" y="432" /><line stroke="grey" transform="rotate(28.949039366574308 378.0 438.0)" x1="372" x2="384" y1="432.0" y2="432.0" /><line stroke="grey" transform="rotate(28.949039366574308 378.0 438.0)" x1="372" x2="384" y1="434.0" y2="434.0" /><line stroke="grey" transform="rotate(28.949039366574308 378.0 438.0)" x1="372" x2="384" y1="436.0" y2="436.0" /><line stroke="grey" transform="rotate(28.949039366574308 378.0 438.0)" x1="372" x2="384" y1="438.0" y2="438.0" /><line stroke="grey" transform="rotate(28.949039366574308 378.0 438.0)" x1="372" x2="384" y1="440.0" y2="440.0" /><line stroke="grey" transform="rotate(28.949039366574308 378.0 438.0)" x1="372" x2="384" y1="442.0" y2="442.0" /><line stroke="black" transform="rotate(26.872583220587998 390.0 438.0)" x1="396" x2="396" y1="432" y2="444" /><line stroke="black" transform="rotate(26.872583220587998 390.0 438.0)" x1="396" x2="384" y1="444" y2="444" /><line stroke="black" transform="rotate(26.872583220587998 390.0 438.0)" x1="384" x2="384" y1="444" y2="432" /><rect fill="none" height="12" stroke="black" transform="rotate(28.402652460506896 402.0 438.0)" width="12" x="396" y="432" /><line stroke="black" transform="rotate(28.402652460506896 402.0 438.0)" x1="396.0" x2="396.0" y1="432" y2="444" /><line stroke="black" transform="rotate(28.402652460506896 402.0 438.0)" x1="400.0" x2="400.0" y1="432" y2="444" /><line stroke="black" transform="rotate(28.402652460506896 402.0 438.0)" x1="404.0" x2="404.0" y1="432" y2="444" /><line stroke="grey" transform="rotate(27.510133674758908 414.0 438.0)" x1="408" x2="420" y1="432" y2="432" /><line stroke="grey" transform="rotate(27.510133674758908 414.0 438.0)" x1="420" x2="420" y1="432" y2="444" /><line stroke="grey" transform="rotate(27.510133674758908 414.0 438.0)" x1="420" x2="408" y1="444" y2="444" /><line stroke="grey" transform="rotate(27.510133674758908 414.0 438.0)" x1="408" x2="408" y1="444" y2="432" /><line stroke="green" transform="rotate(23.149590732028045 474.0 438.0)" x1="480" x2="480" y1="432" y2="444" /><line stroke="green" transform="rotate(23.149590732028045 474.0 438.0)" x1="480" x2="468" y1="444" y2="444" /><line stroke="green" transform="rotate(23.149590732028045 474.0 438.0)" x1="468" x2="468" y1="444" y2="432" /><line stroke="grey" transform="rotate(57.25599800799643 234.0 450.0)" x1="228" x2="240" y1="444" y2="444" /><line stroke="grey" transform="rotate(57.25599800799643 234.0 450.0)" x1="240" x2="228" y1="456" y2="456" /><rect fill="none" height="12" stroke="yellow" transform="rotate(24.756441623933373 474.0 450.0)" width="12" x="468" y="444" /><line stroke="yellow" transform="rotate(24.756441623933373 474.0 450.0)" x1="468" x2="480" y1="444.0" y2="444.0" /><line stroke="yellow" transform="rotate(24.756441623933373 474.0 450.0)" x1="468" x2="480" y1="446.0" y2="446.0" /><line stroke="yellow" transform="rotate(24.756441623933373 474.0 450.0)" x1="468" x2="480" y1="448.0" y2="448.0" /><line stroke="yellow" transform="rotate(24.756441623933373 474.0 450.0)" x1="468" x2="480" y1="450.0" y2="450.0" /><line stroke="yellow" transform="rotate(24.756441623933373 474.0 450.0)" x1="468" x2="480" y1="452.0" y2="452.0" /><line stroke="yellow" transform="rotate(24.756441623933373 474.0 450.0)" x1="468" x2="480" y1="454.0" y2="454.0" /><rect fill="none" height="12" stroke="yellow" transform="rotate(19.157377838571637 510.0 450.0)" width="12" x="504" y="444" /><line stroke="yellow" transform="rotate(19.157377838571637 510.0 450.0)" x1="504" x2="516" y1="444.0" y2="444.0" /><line stroke="yellow" transform="rotate(19.157377838571637 510.0 450.0)" x1="504" x2="516" y1="446.0" y2="446.0" /><line stroke="yellow" transform="rotate(19.157377838571637 510.0 450.0)" x1="504" x2="516" y1="448.0" y2="448.0" /><line stroke="yellow" transform="rotate(19.157377838571637 510.0 450.0)" x1="504" x2="516" y1="450.0" y2="450.0" /><line stroke="yellow" transform="rotate(19.157377838571637 510.0 450.0)" x1="504" x2="516" y1="452.0" y2="452.0" /><line stroke="yellow" transform="rotate(19.157377838571637 510.0 450.0)" x1="504" x2="516" y1="454.0" y2="454.0" /><line stroke="grey" transform="rotate(65.19892731265779 6.0 462.0)" x1="0" x2="12" y1="456" y2="456" /><line stroke="grey" transform="rotate(65.19892731265779 6.0 462.0)" x1="12" x2="12" y1="456" y2="468" /><line stroke="grey" transform="rotate(65.19892731265779 6.0 462.0)" x1="12" x2="0" y1="468" y2="468" /><line stroke="grey" transform="rotate(65.19892731265779 6.0 462.0)" x1="0" x2="0" y1="468" y2="456" /><rect fill="none" height="12" stroke="red" transform="rotate(69.89605819487284 42.0 462.0)" width="12" x="36" y="456" /><rect fill="none" height="12" stroke="green" transform="rotate(66.40213931782039 78.0 462.0)" width="12" x="72" y="456" /><rect fill="none" height="12" stroke="green" transform="rotate(51.10026835430681 198.0 462.0)" width="12" x="192" y="456" /><line stroke="black" transform="rotate(35.67448565294918 282.0 462.0)" x1="276" x2="288" y1="456" y2="456" /><line stroke="black" transform="rotate(35.67448565294918 282.0 462.0)" x1="288" x2="288" y1="456" y2="468" /><line stroke="black" transform="rotate(35.67448565294918 282.0 462.0)" x1="288" x2="276" y1="468" y2="468" /><line stroke="black" transform="rotate(35.67448565294918 282.0 462.0)" x1="276" x2="276" y1="468" y2="456" /><line stroke="grey" transform="rotate(24.698019591409665 462.0 462.0)" x1="456" x2="468" y1="456" y2="456" /><line stroke="grey" transform="rotate(24.698019591409665 462.0 462.0)" x1="468" x2="468" y1="456" y2="468" /><line stroke="grey" transform="rotate(24.698019591409665 462.0 462.0)" x1="468" x2="456" y1="468" y2="468" /><line stroke="grey" transform="rotate(24.698019591409665 462.0 462.0)" x1="456" x2="456" y1="468" y2="456" /><rect fill="none" height="12" stroke="grey" transform="rotate(24.29614595867307 510.0 462.0)" width="12" x="504" y="456" /><line stroke="grey" transform="rotate(24.29614595867307 510.0 462.0)" x1="504" x2="516" y1="456.0" y2="456.0" /><line stroke="grey" transform="rotate(24.29614595867307 510.0 462.0)" x1="504" x2="516" y1="460.0" y2="460.0" /><line stroke="grey" transform="rotate(24.29614595867307 510.0 462.0)" x1="504" x2="516" y1="464.0" y2="464.0" /><line stroke="red" transform="rotate(68.45643682736579 54.0 474.0)" x1="48" x2="60" y1="468" y2="468" /><line stroke="red" transform="rotate(68.45643682736579 54.0 474.0)" x1="60" x2="60" y1="468" y2="480" /><line stroke="red" transform="rotate(68.45643682736579 54.0 474.0)" x1="60" x2="48" y1="480" y2="480" /><line stroke="red" transform="rotate(68.45643682736579 54.0 474.0)" x1="48" x2="48" y1="480" y2="468" /><line stroke="green" transform="rotate(39.95086349235129 294.0 474.0)" x1="300" x2="300" y1="468" y2="480" /><rect fill="none" height="12" stroke="red" transform="rotate(38.11315226982795 330.0 474.0)" width="12" x="324" y="468" /><line stroke="red" transform="rotate(38.11315226982795 330.0 474.0)" x1="324.0" x2="324.0" y1="468" y2="480" /><line stroke="red" transform="rotate(38.11315226982795 330.0 474.0)" x1="326.0" x2="326.0" y1="468" y2="480" /><line stroke="red" transform="rotate(38.11315226982795 330.0 474.0)" x1="328.0" x2="328.0" y1="468" y2="480" /><line stroke="red" transform="rotate(38.11315226982795 330.0 474.0)" x1="330.0" x2="330.0" y1="468" y2="480" /><line stroke="red" transform="rotate(38.11315226982795 330.0 474.0)" x1="332.0" x2="332.0" y1="468" y2="480" /><line stroke="red" transform="rotate(38.11315226982795 330.0 474.0)" x1="334.0" x2="334.0" y1="468" y2="480" /><rect fill="none" height="12" stroke="red" transform="rotate(30.414375926796172 426.0 474.0)" width="12" x="420" y="468" /><line stroke="red" transform="rotate(26.441931754747287 438.0 474.0)" x1="432" x2="444" y1="468" y2="468" /><line stroke="red" transform="rotate(26.441931754747287 438.0 474.0)" x1="444" x2="432" y1="480" y2="480" /><line stroke="red" transform="rotate(26.441931754747287 438.0 474.0)" x1="432" x2="432" y1="480" y2="468" /><rect fill="none" height="12" stroke="green" transform="rotate(24.506439785376628 486.0 474.0)" width="12" x="480" y="468" /><line stroke="green" transform="rotate(24.506439785376628 486.0 474.0)" x1="480.0" x2="480.0" y1="468" y2="480" /><line stroke="green" transform="rotate(24.506439785376628 486.0 474.0)" x1="484.0" x2="484.0" y1="468" y2="480" /><line stroke="green" transform="rotate(24.506439785376628 486.0 474.0)" x1="488.0" x2="488.0" y1="468" y2="480" /><rect fill="none" height="12" stroke="yellow" transform="rotate(65.25005287948672 6.0 486.0)" width="12" x="0" y="480" /><rect fill="none" height="12" stroke="black" transform="rotate(72.73430835232486 30.0 486.0)" width="12" x="24" y="480" /><rect fill="none" height="12" stroke="red" transform="rotate(41.230803775515305 270.0 486.0)" width="12" x="264" y="480" /><rect fill="none" height="12" stroke="black" transform="rotate(39.325323918837945 282.0 486.0)" width="12" x="276" y="480" /><line stroke="black" transform="rotate(39.325323918837945 282.0 486.0)" x1="276.0" x2="276.0" y1="480" y2="492" /><line stroke="black" transform="rotate(39.325323918837945 282.0 486.0)" x1="278.0" x2="278.0" y1="480" y2="492" /><line stroke="black" transform="rotate(39.325323918837945 282.0 486.0)" x1="280.0" x2="280.0" y1="480" y2="492" /><line stroke="black" transform="rotate(39.325323918837945 282.0 486.0)" x1="282.0" x2="282.0" y1="480" y2="492" /><line stroke="black" transform="rotate(39.325323918837945 282.0 486.0)" x1="284.0" x2="284.0" y1="480" y2="492" /><line stroke="black" transform="rotate(39.325323918837945 282.0 486.0)" x1="286.0" x2="286.0" y1="480" y2="492" /><rect fill="none" height="12" stroke="black" transform="rotate(39.39204721059531 354.0 486.0)" width="12" x="348" y="480" /><line stroke="black" transform="rotate(39.39204721059531 354.0 486.0)" x1="348" x2="360" y1="480.0" y2="480.0" /><line stroke="black" transform="rotate(39.39204721059531 354.0 486.0)" x1="348" x2="360" y1="482.0" y2="482.0" /><line stroke="black" transform="rotate(39.39204721059531 354.0 486.0)" x1="348" x2="360" y1="484.0" y2="484.0" /><line stroke="black" transform="rotate(39.39204721059531 354.0 486.0)" x1="348" x2="360" y1="486.0" y2="486.0" /><line stroke="black" transform="rotate(39.39204721059531 354.0 486.0)" x1="348" x2="360" y1="488.0" y2="488.0" /><line stroke="black" transform="rotate(39.39204721059531 354.0 486.0)" x1="348" x2="360" y1="490.0" y2="490.0" /><rect fill="none" height="12" stroke="green" transform="rotate(22.12606152902268 486.0 486.0)" width="12" x="480" y="480" /><line stroke="green" transform="rotate(22.12606152902268 486.0 486.0)" x1="480" x2="492" y1="480.0" y2="480.0" /><line stroke="green" transform="rotate(22.12606152902268 486.0 486.0)" x1="480" x2="492" y1="484.0" y2="484.0" /><line stroke="green" transform="rotate(22.12606152902268 486.0 486.0)" x1="480" x2="492" y1="488.0" y2="488.0" /><line stroke="green" transform="rotate(63.56916715515313 18.0 498.0)" x1="12" x2="24" y1="492" y2="492" /><line stroke="green" transform="rotate(63.56916715515313 18.0 498.0)" x1="24" x2="24" y1="492" y2="504" /><line stroke="green" transform="rotate(63.56916715515313 18.0 498.0)" x1="12" x2="12" y1="504" y2="492" /><line stroke="black" transform="rotate(61.659362754975845 42.0 498.0)" x1="36" x2="48" y1="492" y2="492" /><line stroke="black" transform="rotate(61.659362754975845 42.0 498.0)" x1="48" x2="48" y1="492" y2="504" /><line stroke="black" transform="rotate(61.659362754975845 42.0 498.0)" x1="36" x2="36" y1="504" y2="492" /><line stroke="green" transform="rotate(61.64951842508356 174.0 498.0)" x1="168" x2="180" y1="492" y2="492" /><line stroke="green" transform="rotate(61.64951842508356 174.0 498.0)" x1="180" x2="180" y1="492" y2="504" /><line stroke="green" transform="rotate(61.64951842508356 174.0 498.0)" x1="180" x2="168" y1="504" y2="504" /><line stroke="green" transform="rotate(50.21168607385996 234.0 498.0)" x1="240" x2="240" y1="492" y2="504" /><line stroke="green" transform="rotate(50.21168607385996 234.0 498.0)" x1="240" x2="228" y1="504" y2="504" /><line stroke="green" transform="rotate(50.21168607385996 234.0 498.0)" x1="228" x2="228" y1="504" y2="492" /><line stroke="grey" transform="rotate(33.175129013064705 294.0 498.0)" x1="288" x2="300" y1="492" y2="492" /><line stroke="grey" transform="rotate(33.175129013064705 294.0 498.0)" x1="300" x2="300" y1="492" y2="504" /><line stroke="grey" transform="rotate(33.175129013064705 294.0 498.0)" x1="300" x2="288" y1="504" y2="504" /><line stroke="grey" transform="rotate(33.175129013064705 294.0 498.0)" x1="288" x2="288" y1="504" y2="492" /><rect fill="none" height="12" stroke="green" transform="rotate(29.44639050606047 402.0 498.0)" width="12" x="396" y="492" /><line stroke="green" transform="rotate(29.44639050606047 402.0 498.0)" x1="396" x2="408" y1="492.0" y2="492.0" /><line stroke="green" transform="rotate(29.44639050606047 402.0 498.0)" x1="396" x2="408" y1="494.0" y2="494.0" /><line stroke="green" transform="rotate(29.44639050606047 402.0 498.0)" x1="396" x2="408" y1="496.0" y2="496.0" /><line stroke="green" transform="rotate(29.44639050606047 402.0 498.0)" x1="396" x2="408" y1="498.0" y2="498.0" /><line stroke="green" transform="rotate(29.44639050606047 402.0 498.0)" x1="396" x2="408" y1="500.0" y2="500.0" /><line stroke="green" transform="rotate(29.44639050606047 402.0 498.0)" x1="396" x2="408" y1="502.0" y2="502.0" /><rect fill="none" height="12" stroke="red" transform="rotate(27.508764499367228 474.0 498.0)" width="12" x="468" y="492" /><line stroke="red" transform="rotate(27.508764499367228 474.0 498.0)" x1="468.0" x2="468.0" y1="492" y2="504" /><line stroke="red" transform="rotate(27.508764499367228 474.0 498.0)" x1="470.0" x2="470.0" y1="492" y2="504" /><line stroke="red" transform="rotate(27.508764499367228 474.0 498.0)" x1="472.0" x2="472.0" y1="492" y2="504" /><line stroke="red" transform="rotate(27.508764499367228 474.0 498.0)" x1="474.0" x2="474.0" y1="492" y2="504" /><line stroke="red" transform="rotate(27.508764499367228 474.0 498.0)" x1="476.0" x2="476.0" y1="492" y2="504" /><line stroke="red" transform="rotate(27.508764499367228 474.0 498.0)" x1="478.0" x2="478.0" y1="492" y2="504" /><line stroke="green" transform="rotate(24.59931380863934 498.0 498.0)" x1="492" x2="504" y1="492" y2="492" /><line stroke="green" transform="rotate(24.59931380863934 498.0 498.0)" x1="504" x2="504" y1="492" y2="504" /><rect fill="none" height="12" stroke="green" transform="rotate(64.95636224843531 42.0 510.0)" width="12" x="36" y="504" /><rect fill="none" height="12" stroke="grey" transform="rotate(52.018123376817506 162.0 510.0)" width="12" x="156" y="504" /><rect fill="none" height="12" stroke="red" transform="rotate(51.79014735773486 198.0 510.0)" width="12" x="192" y="504" /><line stroke="green" transform="rotate(49.31677261444813 210.0 510.0)" x1="204" x2="216" y1="504" y2="504" /><line stroke="green" transform="rotate(49.31677261444813 210.0 510.0)" x1="216" x2="216" y1="504" y2="516" /><line stroke="green" transform="rotate(49.31677261444813 210.0 510.0)" x1="216" x2="204" y1="516" y2="516" /><line stroke="green" transform="rotate(49.31677261444813 210.0 510.0)" x1="204" x2="204" y1="516" y2="504" /><line stroke="grey" transform="rotate(41.040279214185105 246.0 510.0)" x1="240" x2="252" y1="504" y2="504" /><line stroke="grey" transform="rotate(41.040279214185105 246.0 510.0)" x1="252" x2="240" y1="516" y2="516" /><line stroke="grey" transform="rotate(41.040279214185105 246.0 510.0)" x1="240" x2="240" y1="516" y2="504" /><line stroke="grey" transform="rotate(43.3449685830163 306.0 510.0)" x1="312" x2="300" y1="516" y2="516" /><line stroke="grey" transform="rotate(43.3449685830163 306.0 510.0)" x1="300" x2="300" y1="516" y2="504" /><rect fill="none" height="12" stroke="black" transform="rotate(32.668611196107584 402.0 510.0)" width="12" x="396" y="504" /><rect fill="none" height="12" stroke="yellow" transform="rotate(30.54261989466368 414.0 510.0)" width="12" x="408" y="504" /><rect fill="none" height="12" stroke="grey" transform="rotate(23.084095437146736 534.0 510.0)" width="12" x="528" y="504" /><line stroke="grey" transform="rotate(23.084095437146736 534.0 510.0)" x1="528" x2="540" y1="504.0" y2="504.0" /><line stroke="grey" transform="rotate(23.084095437146736 534.0 510.0)" x1="528" x2="540" y1="506.0" y2="506.0" /><line stroke="grey" transform="rotate(23.084095437146736 534.0 510.0)" x1="528" x2="540" y1="508.0" y2="508.0" /><line stroke="grey" transform="rotate(23.084095437146736 534.0 510.0)" x1="528" x2="540" y1="510.0" y2="510.0" /><line stroke="grey" transform="rotate(23.084095437146736 534.0 510.0)" x1="528" x2="540" y1="512.0" y2="512.0" /><line stroke="grey" transform="rotate(23.084095437146736 534.0 510.0)" x1="528" x2="540" y1="514.0" y2="514.0" /><line stroke="grey" transform="rotate(55.40130199246121 138.0 522.0)" x1="132" x2="144" y1="516" y2="516" /><line stroke="grey" transform="rotate(55.40130199246121 138.0 522.0)" x1="144" x2="144" y1="516" y2="528" /><line stroke="grey" transform="rotate(55.40130199246121 138.0 522.0)" x1="144" x2="132" y1="528" y2="528" /><line stroke="grey" transform="rotate(48.93243165413644 210.0 522.0)" x1="204" x2="216" y1="516" y2="516" /><line stroke="grey" transform="rotate(48.93243165413644 210.0 522.0)" x1="216" x2="216" y1="516" y2="528" /><line stroke="grey" transform="rotate(48.93243165413644 210.0 522.0)" x1="216" x2="204" y1="528" y2="528" /><line stroke="grey" transform="rotate(48.93243165413644 210.0 522.0)" x1="204" x2="204" y1="528" y2="516" /><line stroke="yellow" transform="rotate(48.949007617448885 246.0 522.0)" x1="252" x2="252" y1="516" y2="528" /><line stroke="yellow" transform="rotate(48.949007617448885 246.0 522.0)" x1="252" x2="240" y1="528" y2="528" /><line stroke="yellow" transform="rotate(48.949007617448885 246.0 522.0)" x1="240" x2="240" y1="528" y2="516" /><rect fill="none" height="12" stroke="red" transform="rotate(45.658772389024556 258.0 522.0)" width="12" x="252" y="516" /><rect fill="none" height="12" stroke="red" transform="rotate(33.19820372319321 342.0 522.0)" width="12" x="336" y="516" /><rect fill="none" height="12" stroke="black" transform="rotate(30.38302756440274 426.0 522.0)" width="12" x="420" y="516" /><line stroke="black" transform="rotate(30.38302756440274 426.0 522.0)" x1="420.0" x2="420.0" y1="516" y2="528" /><line stroke="black" transform="rotate(30.38302756440274 426.0 522.0)" x1="424.0" x2="424.0" y1="516" y2="528" /><line stroke="black" transform="rotate(30.38302756440274 426.0 522.0)" x1="428.0" x2="428.0" y1="516" y2="528" /><rect fill="none" height="12" stroke="green" transform="rotate(24.926753745132896 486.0 522.0)" width="12" x="480" y="516" /><line stroke="green" transform="rotate(24.926753745132896 486.0 522.0)" x1="480.0" x2="480.0" y1="516" y2="528" /><line stroke="green" transform="rotate(24.926753745132896 486.0 522.0)" x1="482.0" x2="482.0" y1="516" y2="528" /><line stroke="green" transform="rotate(24.926753745132896 486.0 522.0)" x1="484.0" x2="484.0" y1="516" y2="528" /><line stroke="green" transform="rotate(24.926753745132896 486.0 522.0)" x1="486.0" x2="486.0" y1="516" y2="528" /><line stroke="green" transform="rotate(24.926753745132896 486.0 522.0)" x1="488.0" x2="488.0" y1="516" y2="528" /><line stroke="green" transform="rotate(24.926753745132896 486.0 522.0)" x1="490.0" x2="490.0" y1="516" y2="528" /><rect fill="none" height="12" stroke="black" transform="rotate(23.381655262102548 522.0 522.0)" width="12" x="516" y="516" /><line stroke="black" transform="rotate(23.381655262102548 522.0 522.0)" x1="516.0" x2="516.0" y1="516" y2="528" /><line stroke="black" transform="rotate(23.381655262102548 522.0 522.0)" x1="520.0" x2="520.0" y1="516" y2="528" /><line stroke="black" transform="rotate(23.381655262102548 522.0 522.0)" x1="524.0" x2="524.0" y1="516" y2="528" /><rect fill="none" height="12" stroke="grey" transform="rotate(58.57116090063126 18.0 534.0)" width="12" x="12" y="528" /><line stroke="yellow" transform="rotate(48.69174058084138 186.0 534.0)" x1="180" x2="192" y1="528" y2="528" /><line stroke="yellow" transform="rotate(48.69174058084138 186.0 534.0)" x1="192" x2="192" y1="528" y2="540" /><line stroke="yellow" transform="rotate(48.69174058084138 186.0 534.0)" x1="192" x2="180" y1="540" y2="540" /><line stroke="yellow" transform="rotate(48.69174058084138 186.0 534.0)" x1="180" x2="180" y1="540" y2="528" /><rect fill="none" height="12" stroke="green" transform="rotate(50.400613958498084 234.0 534.0)" width="12" x="228" y="528" /><line stroke="green" transform="rotate(50.400613958498084 234.0 534.0)" x1="228" x2="240" y1="528.0" y2="528.0" /><line stroke="green" transform="rotate(50.400613958498084 234.0 534.0)" x1="228" x2="240" y1="530.0" y2="530.0" /><line stroke="green" transform="rotate(50.400613958498084 234.0 534.0)" x1="228" x2="240" y1="532.0" y2="532.0" /><line stroke="green" transform="rotate(50.400613958498084 234.0 534.0)" x1="228" x2="240" y1="534.0" y2="534.0" /><line stroke="green" transform="rotate(50.400613958498084 234.0 534.0)" x1="228" x2="240" y1="536.0" y2="536.0" /><line stroke="green" transform="rotate(50.400613958498084 234.0 534.0)" x1="228" x2="240" y1="538.0" y2="538.0" /><rect fill="none" height="12" stroke="red" transform="rotate(46.93004339289815 258.0 534.0)" width="12" x="252" y="528" /><line stroke="red" transform="rotate(46.93004339289815 258.0 534.0)" x1="252" x2="264" y1="528.0" y2="528.0" /><line stroke="red" transform="rotate(46.93004339289815 258.0 534.0)" x1="252" x2="264" y1="530.0" y2="530.0" /><line stroke="red" transform="rotate(46.93004339289815 258.0 534.0)" x1="252" x2="264" y1="532.0" y2="532.0" /><line stroke="red" transform="rotate(46.93004339289815 258.0 534.0)" x1="252" x2="264" y1="534.0" y2="534.0" /><line stroke="red" transform="rotate(46.93004339289815 258.0 534.0)" x1="252" x2="264" y1="536.0" y2="536.0" /><line stroke="red" transform="rotate(46.93004339289815 258.0 534.0)" x1="252" x2="264" y1="538.0" y2="538.0" /><rect fill="none" height="12" stroke="red" transform="rotate(41.410316150452324 294.0 534.0)" width="12" x="288" y="528" /><line stroke="red" transform="rotate(41.410316150452324 294.0 534.0)" x1="288.0" x2="288.0" y1="528" y2="540" /><line stroke="red" transform="rotate(41.410316150452324 294.0 534.0)" x1="290.0" x2="290.0" y1="528" y2="540" /><line stroke="red" transform="rotate(41.410316150452324 294.0 534.0)" x1="292.0" x2="292.0" y1="528" y2="540" /><line stroke="red" transform="rotate(41.410316150452324 294.0 534.0)" x1="294.0" x2="294.0" y1="528" y2="540" /><line stroke="red" transform="rotate(41.410316150452324 294.0 534.0)" x1="296.0" x2="296.0" y1="528" y2="540" /><line stroke="red" transform="rotate(41.410316150452324 294.0 534.0)" x1="298.0" x2="298.0" y1="528" y2="540" /><rect fill="none" height="12" stroke="grey" transform="rotate(36.41882859640253 306.0 534.0)" width="12" x="300" y="528" /><line stroke="grey" transform="rotate(36.41882859640253 306.0 534.0)" x1="300" x2="312" y1="528.0" y2="528.0" /><line stroke="grey" transform="rotate(36.41882859640253 306.0 534.0)" x1="300" x2="312" y1="530.0" y2="530.0" /><line stroke="grey" transform="rotate(36.41882859640253 306.0 534.0)" x1="300" x2="312" y1="532.0" y2="532.0" /><line stroke="grey" transform="rotate(36.41882859640253 306.0 534.0)" x1="300" x2="312" y1="534.0" y2="534.0" /><line stroke="grey" transform="rotate(36.41882859640253 306.0 534.0)" x1="300" x2="312" y1="536.0" y2="536.0" /><line stroke="grey" transform="rotate(36.41882859640253 306.0 534.0)" x1="300" x2="312" y1="538.0" y2="538.0" /><rect fill="none" height="12" stroke="grey" transform="rotate(34.27485057171898 318.0 534.0)" width="12" x="312" y="528" /><rect fill="none" height="12" stroke="yellow" transform="rotate(33.2398190879734 366.0 534.0)" width="12" x="360" y="528" /><line stroke="yellow" transform="rotate(33.2398190879734 366.0 534.0)" x1="360.0" x2="360.0" y1="528" y2="540" /><line stroke="yellow" transform="rotate(33.2398190879734 366.0 534.0)" x1="362.0" x2="362.0" y1="528" y2="540" /><line stroke="yellow" transform="rotate(33.2398190879734 366.0 534.0)" x1="364.0" x2="364.0" y1="528" y2="540" /><line stroke="yellow" transform="rotate(33.2398190879734 366.0 534.0)" x1="366.0" x2="366.0" y1="528" y2="540" /><line stroke="yellow" transform="rotate(33.2398190879734 366.0 534.0)" x1="368.0" x2="368.0" y1="528" y2="540" /><line stroke="yellow" transform="rotate(33.2398190879734 366.0 534.0)" x1="370.0" x2="370.0" y1="528" y2="540" /><line stroke="red" transform="rotate(32.163712731208726 378.0 534.0)" x1="372" x2="384" y1="528" y2="528" /><line stroke="red" transform="rotate(32.163712731208726 378.0 534.0)" x1="384" x2="384" y1="528" y2="540" /><line stroke="red" transform="rotate(32.163712731208726 378.0 534.0)" x1="372" x2="372" y1="540" y2="528" /><line stroke="green" transform="rotate(29.958337370751472 390.0 534.0)" x1="384" x2="396" y1="528" y2="528" /><line stroke="green" transform="rotate(29.958337370751472 390.0 534.0)" x1="396" x2="396" y1="528" y2="540" /><line stroke="green" transform="rotate(29.958337370751472 390.0 534.0)" x1="396" x2="384" y1="540" y2="540" /><rect fill="none" height="12" stroke="black" transform="rotate(27.988419547680067 450.0 534.0)" width="12" x="444" y="528" /><line stroke="black" transform="rotate(27.988419547680067 450.0 534.0)" x1="444" x2="456" y1="528.0" y2="528.0" /><line stroke="black" transform="rotate(27.988419547680067 450.0 534.0)" x1="444" x2="456" y1="532.0" y2="532.0" /><line stroke="black" transform="rotate(27.988419547680067 450.0 534.0)" x1="444" x2="456" y1="536.0" y2="536.0" /><rect fill="none" height="12" stroke="grey" transform="rotate(23.741244211841 462.0 534.0)" width="12" x="456" y="528" /><line stroke="grey" transform="rotate(23.741244211841 462.0 534.0)" x1="456.0" x2="456.0" y1="528" y2="540" /><line stroke="grey" transform="rotate(23.741244211841 462.0 534.0)" x1="460.0" x2="460.0" y1="528" y2="540" /><line stroke="grey" transform="rotate(23.741244211841 462.0 534.0)" x1="464.0" x2="464.0" y1="528" y2="540" /><line stroke="purple" x1="0" x2="0" y1="0" y2="5" /><line stroke="purple" x1="540" x2="540" y1="0" y2="5" /><line stroke="purple" x1="0" x2="0" y1="540" y2="545" /><line stroke="purple" x1="540" x2="540" y1="540" y2="545" /></svg>