<svg width="395" height="378" viewBox="0 0 395 378" fill="white" xmlns="http://www.w3.org/2000/svg">
<path d="M171.589 4.1786C165.54 7.11811 149.162 15.1416 126.459 24.5248C105.63 33.1333 93.2524 41.3666 89.2377 42.9973C82.3301 45.803 70.3112 51.821 56.0435 61.13C43.2963 69.447 36.3461 76.0883 33.2253 79.8403C29.6649 84.1206 25.479 91.6719 20.3425 102.144C14.8407 113.362 10.8002 126.598 6.89773 141.186C0.0436945 166.807 1.60712 173.452 1.20307 180.857C0.605581 191.807 1.31181 209.851 3.51121 220.562C4.66323 226.172 5.70732 231.838 5.86867 252.38C5.93397 260.694 9.36255 269.311 12.1253 283.252C16.0158 302.884 15.8446 316.234 16.8676 318.732C18.6953 323.194 26.431 325.465 39.7217 333.843C45.7075 337.617 60.3348 339.858 84.0075 344.158C126.02 351.791 131.337 355.962 132.576 355.896C132.772 355.885 131.744 355.308 131.259 356.466C129.735 360.1 131.059 364.323 132.147 366.397C134.665 371.196 142.477 371.539 151.386 374.167C162.831 377.543 183.518 375.519 198.956 375.153C231.858 374.372 239.946 369.868 247.437 367.73C258.002 364.715 267.327 363.798 273.344 361.843C275.808 361.042 290.248 357.141 311.458 351.626C327.807 347.375 338.501 338.665 348.122 331.848C357.801 324.99 360.177 317.474 367.914 288.572C372.018 273.238 371.606 260.705 372.645 251.11C374.397 234.921 380.902 224.018 385.7 215.04C393.687 200.098 394.067 191.626 393.335 183.1C392.77 176.518 384.197 160.741 374.305 141.845C369.191 132.076 364.031 129.917 361.398 124.573C358.843 119.386 360.468 115.513 359.829 113.487C358.303 108.653 344.823 104.641 336.847 100.116C325.988 93.9567 310.466 73.1345 304.799 66.1879C301.253 61.8406 301.019 56.7575 298 53.5611C292.342 47.5716 280.469 34.5962 266.583 19.3296C258.442 10.38 253.248 7.79812 249.937 6.33538C240.859 2.32435 229.341 6.06739 223.361 8.83056C221.246 9.80776 219.209 10.5067 216.854 10.4499C210.942 10.3073 206.529 4.65429 200.105 2.2913C195.531 0.608673 187.981 0.845348 182.223 1.46387C181.173 1.69164 180.135 1.94589 179.097 2.18838C178.059 2.43087 175.395 3.23513 171.589 4.1786Z" stroke="none"/>
</svg>
