<svg width="389" height="379" viewBox="0 0 389 379" fill="white" xmlns="http://www.w3.org/2000/svg">
<path d="M135.899 14.6072C145.374 12.7299 152.008 10.9223 153.348 10.8554C154.449 10.8554 156.506 10.6148 157.58 10.5541C161.869 9.67334 165.978 7.66374 170.738 5.54684C175.661 3.5813 181.908 -0.391724 191.904 1.492C199.466 2.91719 207.224 3.33962 226.057 16.888C242.136 28.4562 252.198 35.0035 255.192 35.8706C259.496 37.1174 263.748 38.7411 270.97 45.743C287.021 61.3076 298.301 71.8724 302.988 77.7657C313.806 91.365 321.774 100.252 324.554 100.533C332.366 101.321 345.448 107.479 354.755 117.235C357.671 120.292 368.219 132.489 379.583 150.621C384.366 158.252 385.312 160.637 385.879 172.996C386.399 184.326 387.529 205.334 387.342 217.543C387.106 233.064 386.636 240.353 380.9 245.15C376.968 248.44 352.845 249.04 344.906 268.822C338.632 284.454 337.434 294.17 331.871 299.712C323.025 308.525 314.562 313.891 310.425 317.967C305.792 322.532 297.106 331.041 288.123 338.428C278.22 346.57 263.926 360.406 253.519 363.309C231.317 369.5 215.25 376.998 205.885 377.038C195.174 377.084 181.703 377.511 162.341 376.04C149.708 375.08 131.765 372.943 120.31 372.284C104.109 371.353 93.6383 371.993 77.047 362.043C61.1242 352.493 50.5669 346.06 47.2854 341.531C40.8942 332.711 34.9572 325.2 31.9199 321.078C27.6833 315.327 21.7639 312.608 12.8106 294.835C5.22695 279.782 0.417626 272.088 1.05679 262.4C2.25859 244.183 5.67747 231.776 6.30547 227.24C6.96683 222.463 10.0464 217.234 9.85616 209.397C9.54108 196.414 6.68033 186.725 6.68014 171.606L6.68007 169.842C6.67885 145.951 6.67792 127.742 8.22542 120.994C10.1382 112.654 11.9759 105.85 14.4759 101.128C17.5694 95.285 23.8112 85.3333 35.4645 73.1489C41.7125 66.6162 49.1063 59.8896 59.7134 52.0051C70.3204 44.1206 83.7342 35.344 91.8713 30.2406C100.008 25.1372 102.722 23.5938 105.65 22.4961C115.881 18.6609 123.856 16.9933 135.899 14.6072Z" stroke="none"/>
</svg>
