<svg width="87" height="212" viewBox="0 0 87 212" fill="none" xmlns="http://www.w3.org/2000/svg">
<path d="M41.9784 15.323C37.4883 15.323 27.7466 15.7501 25.9667 16.8691C22.0713 19.3179 21.7342 23.6084 21.6675 25.6228C21.6352 26.598 22.4197 27.4198 23.2729 27.9223C26.9015 30.0596 41.35 29.1694 50.5629 28.7556C52.6042 28.6639 54.4418 27.5023 56.1381 26.2601C57.8631 24.9969 58.7165 23.0438 58.8618 21.0898C58.9347 20.1092 58.3592 19.1557 57.668 18.4911C56.022 17.481 52.8056 17.1251 48.6567 17.0963C46.7404 17.0675 45.2081 17.0099 43.4679 16.6017" stroke="white" stroke-width="2" stroke-linecap="round"/>
<path d="M23.0591 27.5131C23.0591 34.3388 23.2086 53.006 22.8372 62.5106C22.3566 74.8082 22.78 83.8874 23.2048 85.9232C23.8622 100.516 23.9382 126.162 23.9016 130.042C23.9286 131.689 24.048 132.68 24.1711 134.388" stroke="white" stroke-width="2" stroke-linecap="round"/>
<path d="M59.3482 24.586C59.1815 26.6124 58.0282 33.8875 55.3223 41.2797C53.3121 46.7712 55.0654 54.0557 57.562 61.0096C60.2232 68.4218 59.9925 73.4996 60.5487 77.9135C61.0766 82.1022 61.9404 86.1368 62.2399 94.0837C62.8908 111.358 61.752 115.904 61.4017 120.819C61.1414 125.571 60.8971 128.711 60.7226 131.117C60.6633 132.446 60.6633 133.994 60.1503 136.953" stroke="white" stroke-width="2" stroke-linecap="round"/>
<path d="M23.9601 123.404C21.2137 123.404 13.932 124.509 10.0496 126.708C6.28811 128.839 3.34858 132.279 2.02082 136.867C1.53801 138.536 1.79129 141.008 2.18134 142.667C3.34294 147.608 10.9215 148.595 15.9702 149.495C20.5839 150.318 24.7362 150.523 36.2359 151.202C59.275 152.564 63.7776 149.959 67.663 147.579C72.5956 144.558 75.2083 139.854 77.3917 136.346C78.4694 134.615 78.2961 131.376 77.6601 127.941C73.4769 124.55 70.4492 123.324 68.3594 122.695C67.3377 122.378 66.395 122.066 65.0904 121.745" stroke="white" stroke-width="2" stroke-linecap="round"/>
<path d="M23.27 128.24C22.2319 128.813 19.6155 130.585 18.4424 132.019C17.8816 132.705 18.359 133.869 19.0523 134.567C22.1426 137.678 27.4833 136.522 36.0164 136.965C47.793 137.576 64.292 136.637 65.4523 134.985C66.0334 134.155 66.5989 133.341 66.6036 132.452C66.6083 131.563 66.0351 130.622 63.4133 128.354" stroke="white" stroke-width="2" stroke-linecap="round"/>
<path d="M41.3456 20.422C41.8053 19.3453 42.9657 15.3849 43.5256 3.93878C43.9686 1.60017 44.8546 1.05962 45.6973 1.1146C46.54 1.16957 47.3126 1.83645 46.0773 1.0001" stroke="white" stroke-width="2" stroke-linecap="round"/>
<path d="M23.5487 26.2605C23.2376 27.4446 22.3636 31.673 21.9071 37.4709C21.4633 43.1064 18.0931 47.0773 17.1815 51.0795C16.2081 55.353 15.9706 68.2294 14.6441 78.243C14.3818 80.2224 14.2835 82.8489 14.701 84.4313C15.1186 86.0138 16.0192 86.4675 17.0078 86.7013C17.9964 86.935 19.0457 86.935 19.8548 86.477C21.201 85.1028 21.9873 83.1964 22.3715 81.0777C22.5229 79.9214 22.5856 78.6006 22.8221 76.3438" stroke="white" stroke-width="2" stroke-linecap="round"/>
<path d="M59.6034 24.9116C60.0599 25.7254 61.7576 29.3233 62.2363 35.9249C62.595 40.8714 65.8652 44.5254 66.5325 48.9119C66.8892 51.2568 65.7725 53.4585 64.5648 55.1081C63.8598 55.8227 62.9678 56.2884 61.8921 56.5597C60.8164 56.8311 59.584 56.8938 57.8169 55.9741" stroke="white" stroke-width="2" stroke-linecap="round"/>
<path d="M46.481 62.1798C46.481 64.9217 47.33 72.7092 48.1598 77.2837C49.0402 82.138 49.2258 91.4986 48.696 100.017C48.5598 103.282 48.4902 108.741 48.7354 112.471C48.9805 116.202 49.5426 118.039 50.8221 122.078" stroke="white" stroke-width="2" stroke-linecap="round"/>
<path d="M34.9992 42.5288C34.9992 50.0909 36.7094 70.7019 37.6679 81.6721C36.5124 88.0832 35.0051 94.8291 35.4037 98.5497C35.8718 100.118 36.8799 101.039 38.8273 102.214" stroke="white" stroke-width="2" stroke-linecap="round"/>
<path d="M2.67107 140.37C2.67107 145.049 3.5253 156.334 6.57945 159.651C10.6725 161.866 14.0881 162.828 16.2263 163.069C17.2834 163.19 18.2837 163.309 19.7987 163.594" stroke="white" stroke-width="2" stroke-linecap="round"/>
<path d="M78.9679 131.328C78.9679 134.731 78.5864 143.449 76.5888 148.238C73.9606 151.995 71.0414 154.863 67.2778 157.036C66.2919 157.519 65.3269 157.934 62.1373 158.724" stroke="white" stroke-width="2" stroke-linecap="round"/>
<path d="M24.6112 164.373C24.6112 166.291 23.5834 172.08 21.4135 176.554C19.4727 180.555 16.8705 183.849 13.7468 187.133C10.0572 191.012 6.38614 193.53 3.17147 196.333C0.192132 198.93 0.986308 202.8 1.47467 204.488C2.61073 208.415 9.67536 207.839 14.3716 209.157C18.9226 210.434 24.4934 210.864 53.247 211.008C63.8404 211.061 67.8701 209.235 71.9353 207.84C75.8294 206.504 79.1379 203.766 82.6802 200.683C84.4015 199.185 85.2298 197.134 85.6777 195.056C85.9111 193.973 85.8299 192.773 85.3981 191.673C83.5026 186.845 77.2743 185.716 73.2387 184.779C68.793 183.746 68.6764 177.159 67.3389 172.974C65.7488 169.197 64.8915 166.203 64.1805 164.005C63.7178 162.796 63.0483 161.393 61.8351 159.25" stroke="white" stroke-width="2" stroke-linecap="round"/>
<path d="M20.2753 197.737C21.246 196.862 23.6328 192.694 26.1962 187.964C28.6365 183.55 30.4323 179.867 31.7449 175.879C31.9544 174.769 32.0111 173.544 32.2258 172.281" stroke="white" stroke-width="2" stroke-linecap="round"/>
<path d="M32.2648 164.268C32.4676 164.268 33.5278 164.627 36.8285 165.17C42.8792 165.354 47.6854 165.124 49.671 164.631C50.6682 164.368 51.6444 164.081 54.5253 162.578" stroke="white" stroke-width="2" stroke-linecap="round"/>
<path d="M57.5279 174.99C57.5279 175.194 57.5279 177.566 57.7625 181.572C58.4663 184.458 59.4456 186.504 60.6029 188.223C61.2644 189.075 62.0765 189.887 65.3768 191.734" stroke="white" stroke-width="2" stroke-linecap="round"/>
<path d="M35.9029 198.287C35.9536 198.287 36.0043 198.287 38.8981 198.287C41.792 198.287 47.5274 198.287 50.9461 198.081C54.3648 197.875 55.2929 197.463 56.7518 197.039" stroke="white" stroke-width="2" stroke-linecap="round"/>
</svg>
