<svg width="30" height="65" viewBox="0 0 30 65" fill="none" xmlns="http://www.w3.org/2000/svg">
<path d="M12.2057 21.1843C14.356 16.0836 15.165 3.12547 15.165 0.328377C15.9994 2.72847 17.5203 8.33311 17.8339 9.33465C18.4534 11.3245 19.1932 13.3195 20.2344 15.2593C23.0401 18.9012 27.2427 21.6343 27.7517 26.0668C28.9239 36.274 28.6666 53.0064 25.7002 56.3C22.4673 59.8896 18.0365 64.4233 14.2376 63.1357C9.68059 61.591 4.51977 58.5646 2.50135 54.8331C1.45753 52.9034 0.601928 49.2794 1.19412 45.0234C1.86102 40.2305 2.77759 35.8512 5.45633 32.2865C8.00559 28.8941 10.4649 25.3135 12.2057 21.1843Z" fill="white" stroke="white" stroke-width="2" stroke-linecap="round"/>
</svg>
