<svg width="28" height="61" viewBox="0 0 28 61" fill="none" xmlns="http://www.w3.org/2000/svg">
<path d="M6.68152 15.9454C8.67459 11.5723 9.56834 5.70552 9.56834 3.42922C10.7924 5.34954 13.2351 6.13677 13.847 6.9807C15.1412 8.62041 16.9856 11.2622 18.218 15.2253C19.5085 19.4573 20.476 23.5719 21.9942 27.9486C23.4706 32.2051 26.8303 36.1167 26.8013 40.6692C26.7547 47.9968 26.5993 54.9458 23.0269 57.6409C21.3697 58.8912 19.3801 59.7847 17.2936 59.3045C12.9283 58.3001 8.18319 56.9137 5.83731 53.3009L5.78604 53.222C3.29061 49.3794 0.228435 44.6642 1.17656 33.0888C1.65792 27.212 4.02913 21.7652 6.68152 15.9454Z" fill="white" stroke="white" stroke-width="2" stroke-linecap="round"/>
</svg>
