<svg width="80" height="89" viewBox="0 0 80 89" fill="white" xmlns="http://www.w3.org/2000/svg">
<path d="M23.5902 6.01166C27.382 3.27222 32.2078 1.58709 33.0347 1.0251C36.2619 1.28556 38.3335 1.20154 39.3739 1.38828C41.1449 1.93754 42.6967 2.50144 44.3605 2.84999C47.8658 3.52503 51.6816 4.46302 54.1841 7.51047C57.0048 10.9454 60.7921 13.5406 63.0912 16.5758C65.7316 20.0615 71.3678 22.2752 73.9856 26.0575C75.0652 27.6173 75.272 29.8519 75.9007 33.2132C77.6264 42.4402 79.9035 51.1285 77.585 57.0741C75.9597 61.2419 74.5102 67.0612 71.2854 70.3099C68.1248 73.4938 62.5869 81.6532 56.8527 83.2499C52.7117 84.403 47.4192 86.7278 42.3926 86.6582C36.5254 86.5768 31.6846 89.2257 25.2439 85.3947C21.762 83.3236 19.127 80.1008 15.6394 78.3742C11.2102 76.1814 6.49881 71.6034 4.69878 66.8476C2.15715 60.1324 -0.0279286 50.2597 1.51264 45.6835C2.82496 41.7854 4.35018 37.0863 7.15611 33.6992C9.65481 30.683 10.6792 27.451 13.5354 22.6628C17.2828 16.3807 19.1106 9.24797 23.5902 6.01166Z" stroke="none"/>
</svg>
