<svg width="80" height="97" viewBox="0 0 80 97" fill="white" xmlns="http://www.w3.org/2000/svg">
<path d="M28.7817 2.19022C30.4119 1.27653 34.2081 1 35.7909 1C38.2374 1.96743 41.8356 2.35707 42.7017 2.53083C44.4269 2.80746 46.1513 3.16218 47.7726 3.80321C50.7359 5.92439 53.6832 8.35101 56.9822 10.4416C61.2285 13.1324 66.7019 16.9589 69.2441 20.2931C71.7553 23.5865 78.2686 28.8172 78.9505 34.4506C79.1651 36.2234 78.6376 37.9819 78.0265 39.8877C76.2133 45.5424 72.9385 53.1755 70.1114 59.4682C67.7193 64.7926 66.4482 68.2576 64.2097 72.7389C61.116 78.9321 57.4804 86.4703 53.8852 89.1233C50.8369 91.3727 47.9196 95.6555 35.9911 95.9201C19.7456 96.2804 15.2053 95.4617 12.024 92.6517C8.93666 89.9248 7.53226 86.6704 6.20834 83.3211C4.81856 79.8051 3.17248 76.0936 2.57241 72.6953C1.94627 69.1494 0.475054 65.4374 1.19151 56.5856C1.57815 51.8088 1.68033 47.0909 4.89307 39.3799C7.01809 34.2795 10.3304 28.3886 13.932 23.9705C16.7334 20.5338 19.7388 16.8696 22.2252 13.5296C24.5305 10.4329 24.6603 4.50007 28.7817 2.19022Z" stroke="none"/>
</svg>
