<svg width="140" height="144" viewBox="0 0 140 144" fill="white" xmlns="http://www.w3.org/2000/svg">
<path d="M38.1648 27.5112C39.8658 22.2949 42.7995 18.0918 43.837 17.0632C45.3293 15.875 45.9663 15.3863 46.6622 14.9459C49.464 13.1639 52.3076 11.1024 55.9047 8.83352C59.2446 5.74973 62.005 2.66598 66.5673 2.51805C74.5956 2.25773 85.3219 -1.08217 90.8221 3.0643C94.3105 5.69416 101.902 9.03031 112.39 32.0882C123.194 55.8399 124.584 59.42 126.441 63.2883C128.96 68.5357 130.695 72.6513 133.22 76.1881C135.302 79.1052 138.568 83.3756 138.567 87.9037C138.566 92.6381 137.113 96.2603 136.025 100.483C134.304 107.165 134.023 112.442 128.229 117.984C122.757 123.218 115.043 129.621 111.684 131.18C106.578 133.551 100.089 137.268 95.6039 137.734C90.5668 138.257 84.1832 140.443 75.1663 138.599C70.3342 137.612 62.655 135.429 58.5826 137.838C55.2741 139.795 51.6677 142.638 47.119 142.502L47.0498 142.5C42.0822 142.352 37.202 142.207 34.8872 139.178C32.8569 136.522 30.9737 133.459 28.0812 131.751C25.0557 129.964 21.0407 129.553 18.293 127.576C15.5156 125.578 10.0921 120.614 6.71907 116.305C3.8851 112.685 -0.316909 107.286 1.39897 93.4533C2.1213 87.6299 3.93235 78.4418 5.95562 72.4201C7.24277 68.5893 8.9003 64.0246 11.268 59.8936C14.0142 55.1022 16.9822 49.6163 20.1385 47.2283C24.1249 44.2121 28.6715 41.2969 31.6955 39.1519C35.0433 36.7773 36.6052 32.2943 38.1648 27.5112Z" stroke="none"/>
</svg>
