<svg width="147" height="142" viewBox="0 0 147 142" fill="white" xmlns="http://www.w3.org/2000/svg">
<path d="M32.6929 9.37748C37.4727 6.00529 54.8739 4.62925 62.3804 4.62925C65.3679 4.83157 66.4298 4.45732 67.3816 4.55588C71.3266 4.60607 74.9757 3.63016 78.5973 2.5143C82.2865 1.78317 86.3279 0.258928 92.2334 1.42059C96.9287 2.34421 100.539 4.22945 104.01 5.9417C107.644 7.73424 112.133 9.20078 117.17 13.4296C120.654 16.3544 125.485 19.7554 126.137 26.3157C127.251 37.5371 130.405 40.6578 133.464 50.3755C136.258 59.2507 142.257 70.9405 144.852 82.3666C146.93 91.5119 146.003 102.118 143.542 110.55C142.234 115.034 142.298 120.54 137.404 125.168C129.798 132.362 124.475 139.596 109.42 140.686C100.006 141.367 85.2564 141.223 70.1838 137.242C61.263 134.886 57.5362 134.798 52.9433 134.753C35.8464 134.584 31.5737 133.604 27.7647 130.084C24.6823 127.234 22.7871 123.162 20.1097 118.26C18.0288 114.45 16.0735 110.277 13.5762 107.293C11.1761 104.424 3.10298 103.134 1.9396 93.5196C0.667633 83.0074 0.378104 67.2099 3.05513 60.0092C5.43742 53.6012 9.05658 43.5941 12.6089 37.3101C14.7729 33.482 17.0108 28.3563 20.7521 23.0487C23.8127 18.7068 26.8621 13.4911 32.6929 9.37748Z" stroke="none"/>
</svg>
