<svg width="211" height="207" viewBox="0 0 211 207" fill="white" xmlns="http://www.w3.org/2000/svg">
<path d="M68.3271 3.27601C71.9849 2.14107 75.4602 1.65696 76.497 1.60151C78.0955 2.34326 79.2475 3.23579 80.0645 3.23238C81.6918 3.14093 83.3234 2.65584 84.8679 1.83709C89.0622 0.469377 95.258 0.893855 99.2971 2.27212C103.145 3.58511 115.122 1.86136 123.791 4.58776C128.436 6.04837 131.926 6.92867 138.947 9.1162C146.645 11.5148 152.839 14.5851 157.095 17.3659C162.049 20.6032 173.48 16.7886 186.893 29.8829C189.832 32.7515 189.713 34.9886 190.667 37.5204C193.682 45.5178 196.673 50.246 200.37 56.602C206.199 66.6208 210.843 78.244 209.249 83.659C208.494 86.2209 205.216 98.8684 201.732 117.293C199.806 127.484 199.151 131.436 199.037 133.663C198.686 140.527 196.32 146.893 193.444 154.971C191.947 159.178 187.962 171.952 179.17 186.391C173.715 195.349 170.291 200.705 164.668 201.461C156.884 202.508 145.089 203.945 130.864 204.711C123.246 205.121 110.954 205.293 99.6435 205.379C88.3335 205.465 78.2953 205.725 72.5433 205.271C65.3114 204.701 61.7341 203.708 58.4843 200.91C51.1042 194.555 47.0461 189.218 45.5905 185.466C44.3341 182.226 41.9827 177.205 39.0349 172.875C36.4292 169.049 36.6342 162.293 32.7535 161.891C28.4476 161.444 23.499 161.584 20.356 160.281C16.0893 158.512 12.875 156.071 10.4335 151.864C7.50333 146.816 4.34924 142.024 3.23454 137.399C1.59583 130.6 0.328104 114.524 1.39049 104.194C1.78458 100.362 3.15454 90.9145 6.7449 80.5375C8.87011 74.3951 9.761 68.3788 14.6961 63.0407C18.9618 58.4268 25.2801 54.8204 28.0495 50.4213C31.6424 44.7142 36.392 36.1421 39.3236 32.2438C43.829 26.2529 47.8912 19.4392 52.4095 15.7208C56.7551 12.1445 63.7239 4.70432 68.3271 3.27601Z" stroke="none"/>
</svg>
