<svg width="234" height="237" viewBox="0 0 234 237" fill="white" xmlns="http://www.w3.org/2000/svg">
<path d="M40.7559 33.388C63.7949 17.5437 74.2427 14.4122 76.2366 14.4122C77.7325 13.8379 78.5392 14.1195 79.3533 13.7874C80.1675 13.4553 80.9909 13.2136 81.8335 12.9683C85.2702 11.9196 88.5151 10.0623 92.995 7.83205C97.8823 5.39901 104.229 3.54217 108.197 2.84454C112.239 2.13421 116.571 0.000136495 127.766 1.55412C135.896 2.68258 144.464 5.38889 154.53 9.29344C162.225 12.278 169.509 12.0552 172.771 14.6938C176.912 18.043 182.8 24.1806 186.835 29.1559C191.398 34.783 202.191 45.0777 211.846 57.3664C215.969 62.6148 214.936 67.045 216.581 71.8262C218.949 78.708 223.19 86.1027 230.027 103.103C232.52 109.3 235.426 119.588 229.606 140.783C225.702 154.997 218.478 175.561 213.64 186.753C205.974 204.49 200.537 212.582 190.146 219.525C173.828 230.43 162.103 237.042 159.701 235.865C157.141 234.611 150.934 226.759 131.428 224.864C117.584 223.519 105.854 222.105 96.6083 221.061C85.46 219.802 75.3574 218.282 68.7934 217.497C63.0338 216.808 55.6366 217.883 50.1096 215.283C46.2551 213.469 41.6553 211.717 41.0897 208.112C40.0969 201.783 42.1191 186.313 37.8445 183.056C36.2903 181.871 34.9407 180.322 33.2429 179.591C29.8342 178.122 24.498 178.912 23.0467 175.888C22.2676 174.265 22.4131 170.962 20.1849 167.299C17.0962 162.22 10.041 156.329 6.9276 150.591C4.91507 146.882 1.36391 138.008 1.20099 124.268C1.02171 109.148 0.782092 98.674 1.39 94.8057C2.48614 87.8305 2.98438 81.5634 4.35921 78.2776C7.21375 71.4553 12.1681 62.0724 20.5764 53.0101C28.2963 44.6897 29.9737 40.8032 40.7559 33.388Z" stroke="none"/>
</svg>
