<?xml version="1.0" encoding="utf-8" ?>
<svg baseProfile="full" height="200" version="1.1" width="200" xmlns="http://www.w3.org/2000/svg" xmlns:ev="http://www.w3.org/2001/xml-events" xmlns:xlink="http://www.w3.org/1999/xlink"><defs /><line stroke="cyan" x1="148.9940531647183" x2="197.9881063294366" y1="109.97911591739255" y2="119.9582318347851" /><line stroke="cyan" x1="147.10596633555662" x2="194.21193267111323" y1="116.76388784242508" y2="133.52777568485016" /><line stroke="magenta" x1="148.71413946378004" x2="197.4282789275601" y1="111.26643760482384" y2="122.53287520964767" /><line stroke="magenta" x1="149.9945181188859" x2="199.9890362377718" y1="100.74037697181208" y2="101.48075394362417" /><line stroke="magenta" x1="145.34792054989634" x2="190.6958410997927" y1="121.06100904041136" y2="142.12201808082273" /><line stroke="magenta" x1="148.43094118588544" x2="196.86188237177086" y1="112.42754745914522" y2="124.85509491829042" /><line stroke="yellow" x1="146.10319453897355" x2="192.2063890779471" y1="119.35188500641627" y2="138.70377001283254" /><line stroke="yellow" x1="146.10236132661632" x2="192.20472265323264" y1="119.353869900103" y2="138.707739800206" /><line stroke="yellow" x1="144.61715072734725" x2="189.2343014546945" y1="122.56789447363614" y2="145.1357889472723" /><line stroke="yellow" x1="147.03046467784088" x2="194.06092935568176" y1="116.97455131031043" y2="133.94910262062086" /><line stroke="yellow" x1="149.0203061709786" x2="198.04061234195723" y1="109.84934428799784" y2="119.69868857599569" /><line stroke="yellow" x1="148.4699763939397" x2="196.9399527878794" y1="112.27442008287677" y2="124.54884016575356" /><line stroke="cyan" x1="130.0696453784406" x2="160.1392907568812" y1="139.94767110627134" y2="179.8953422125427" /><line stroke="cyan" x1="134.79365609289584" x2="169.5873121857917" y1="135.9082371565257" y2="171.8164743130514" /><line stroke="magenta" x1="140.892671767882" x2="181.785343535764" y1="128.77132940418753" y2="157.54265880837505" /><line stroke="magenta" x1="125.62387482565451" x2="151.24774965130902" y1="142.93503276951338" y2="185.87006553902677" /><line stroke="magenta" x1="129.30035272235384" x2="158.60070544470767" y1="140.5152974855875" y2="181.030594971175" /><line stroke="yellow" x1="142.89682922957627" x2="185.79365845915254" y1="125.68778001401779" y2="151.37556002803558" /><line stroke="yellow" x1="137.5779277661493" x2="175.15585553229857" y1="132.98331919019168" y2="165.96663838038336" /><line stroke="yellow" x1="137.05872079891475" x2="174.1174415978295" y1="133.56562546338267" y2="167.13125092676535" /><line stroke="cyan" x1="102.63119650276843" x2="105.26239300553686" y1="149.93072005252696" y2="199.86144010505393" /><line stroke="cyan" x1="119.51540872356094" x2="139.03081744712188" y1="146.0342136063207" y2="192.06842721264138" /><line stroke="cyan" x1="105.91321973778562" x2="111.82643947557125" y1="149.64910706480694" y2="199.29821412961388" /><line stroke="cyan" x1="114.00907752173512" x2="128.01815504347024" y1="147.99735145807543" y2="195.99470291615086" /><line stroke="cyan" x1="124.66743242046095" x2="149.3348648409219" y1="143.49158283831474" y2="186.98316567662945" /><line stroke="cyan" x1="117.701078547567" x2="135.402157095134" y1="146.76186286123408" y2="193.52372572246816" /><line stroke="cyan" x1="101.88766271400446" x2="103.77532542800893" y1="149.9643545888282" y2="199.9287091776564" /><line stroke="cyan" x1="104.4159303969805" x2="108.83186079396098" y1="149.80461382973493" y2="199.60922765946987" /><line stroke="cyan" x1="106.06121573981065" x2="112.1224314796213" y1="149.63125692298627" y2="199.26251384597253" /><line stroke="cyan" x1="102.15260488746515" x2="104.30520977493029" y1="149.95364143081525" y2="199.9072828616305" /><line stroke="cyan" x1="103.90718533694847" x2="107.81437067389693" y1="149.84710525941034" y2="199.69421051882068" /><line stroke="cyan" x1="117.03047253864266" x2="134.0609450772853" y1="147.0102436189235" y2="194.02048723784702" /><line stroke="cyan" x1="108.7722375881355" x2="117.54447517627099" y1="149.2244639147782" y2="198.44892782955642" /><line stroke="cyan" x1="123.55294354041213" x2="147.10588708082426" y1="144.10508871527364" y2="188.21017743054728" /><line stroke="cyan" x1="114.69148932315736" x2="129.3829786463147" y1="147.79288797998666" y2="195.58577595997332" /><line stroke="cyan" x1="101.2615585343851" x2="102.5231170687702" y1="149.9840821668691" y2="199.96816433373817" /><line stroke="cyan" x1="117.30155552599953" x2="134.60311105199906" y1="146.91115194045818" y2="193.8223038809164" /><line stroke="cyan" x1="107.64498070600209" x2="115.28996141200417" y1="149.41208627456297" y2="198.82417254912596" /><line stroke="magenta" x1="119.86141920724603" x2="139.72283841449206" y1="145.88598944202946" y2="191.7719788840589" /><line stroke="magenta" x1="103.63300332210913" x2="107.26600664421827" y1="149.86783820120485" y2="199.73567640240967" /><line stroke="magenta" x1="101.83789135629445" x2="103.6757827125889" y1="149.96621013607555" y2="199.9324202721511" /><line stroke="magenta" x1="110.52649644545556" x2="121.05299289091113" y1="148.87937062385123" y2="197.75874124770246" /><line stroke="magenta" x1="118.04640201250959" x2="136.09280402501918" y1="146.62968340448913" y2="193.25936680897829" /><line stroke="magenta" x1="119.46751776584011" x2="138.93503553168023" y1="146.05448677421884" y2="192.1089735484377" /><line stroke="magenta" x1="115.53647221149696" x2="131.0729444229939" y1="147.52492010746977" y2="195.0498402149395" /><line stroke="magenta" x1="118.56145643151423" x2="137.12291286302846" y1="146.4270646836627" y2="192.85412936732538" /><line stroke="magenta" x1="115.52152900921718" x2="131.04305801843435" y1="147.529802621261" y2="195.05960524252203" /><line stroke="magenta" x1="110.52845125480304" x2="121.05690250960608" y1="148.87894960179932" y2="197.7578992035986" /><line stroke="magenta" x1="102.23061738168246" x2="104.46123476336493" y1="149.9502186791663" y2="199.90043735833262" /><line stroke="magenta" x1="108.09902902281404" x2="116.19805804562807" y1="149.3396972922171" y2="198.6793945844342" /><line stroke="magenta" x1="116.00857772422609" x2="132.01715544845217" y1="147.36797904964294" y2="194.73595809928588" /><line stroke="magenta" x1="107.8083682988714" x2="115.6167365977428" y1="149.38653039553577" y2="198.77306079107157" /><line stroke="magenta" x1="105.09770430526017" x2="110.19540861052033" y1="149.73945527261162" y2="199.47891054522324" /><line stroke="magenta" x1="113.99361679466475" x2="127.9872335893295" y1="148.00186130770427" y2="196.00372261540855" /><line stroke="magenta" x1="117.98762065977422" x2="135.97524131954845" y1="146.6523901102619" y2="193.3047802205238" /><line stroke="magenta" x1="103.33662399934346" x2="106.6732479986869" y1="149.8885451811035" y2="199.777090362207" /><line stroke="yellow" x1="111.06421493311016" x2="122.12842986622034" y1="148.76046706004712" y2="197.52093412009427" /><line stroke="yellow" x1="105.40527096542228" x2="110.81054193084455" y1="149.70697180265927" y2="199.41394360531854" /><line stroke="yellow" x1="111.05451685079049" x2="122.10903370158097" y1="148.76266663335372" y2="197.52533326670746" /><line stroke="yellow" x1="114.83821902920424" x2="129.67643805840848" y1="147.74753664893467" y2="195.49507329786937" /><line stroke="yellow" x1="123.31307727169235" x2="146.6261545433847" y1="144.23234594868444" y2="188.46469189736888" /><line stroke="yellow" x1="118.51564976546972" x2="137.03129953093944" y1="146.44535190697192" y2="192.89070381394384" /><line stroke="yellow" x1="116.43539606299709" x2="132.87079212599417" y1="147.22158146708367" y2="194.44316293416733" /><line stroke="yellow" x1="103.53515553890038" x2="107.07031107780077" y1="149.87487017843537" y2="199.74974035687075" /><line stroke="yellow" x1="107.8650385277178" x2="115.7300770554356" y1="149.37753708881718" y2="198.75507417763433" /><line stroke="yellow" x1="103.3622105048834" x2="106.72442100976679" y1="149.8868273246641" y2="199.7736546493282" /><line stroke="yellow" x1="114.52573727843406" x2="129.05147455686813" y1="147.84352575341737" y2="195.68705150683473" /><line stroke="yellow" x1="100.63884305089577" x2="101.27768610179153" y1="149.99591862898734" y2="199.99183725797465" /><line stroke="yellow" x1="121.40731656509553" x2="142.81463313019105" y1="145.18547108841278" y2="190.37094217682554" /><line stroke="yellow" x1="100.93873727247527" x2="101.87747454495052" y1="149.99118694663355" y2="199.98237389326712" /><line stroke="yellow" x1="102.41892017844754" x2="104.83784035689506" y1="149.94145397533293" y2="199.8829079506659" /><line stroke="yellow" x1="124.21319195205496" x2="148.4263839041099" y1="143.7461008033052" y2="187.49220160661042" /><line stroke="yellow" x1="123.66046562129243" x2="147.32093124258486" y1="144.04750125243928" y2="188.09500250487855" /><line stroke="cyan" x1="76.46095400598652" x2="52.921908011973045" y1="144.11250745187488" y2="188.22501490374978" /><line stroke="cyan" x1="83.44469753855414" x2="66.88939507710828" y1="147.17967740892306" y2="194.3593548178461" /><line stroke="cyan" x1="95.35621295557864" x2="90.71242591115727" y1="149.78388536349956" y2="199.5677707269991" /><line stroke="cyan" x1="86.24431571680948" x2="72.48863143361898" y1="148.0705850796637" y2="196.14117015932737" /><line stroke="cyan" x1="97.78007080529326" x2="95.56014161058651" y1="149.95069483371066" y2="199.9013896674213" /><line stroke="cyan" x1="84.16524301411506" x2="68.33048602823013" y1="147.42636894384776" y2="194.85273788769553" /><line stroke="cyan" x1="75.7837744424321" x2="51.5675488848642" y1="143.74442158430026" y2="187.48884316860054" /><line stroke="cyan" x1="88.50228618779381" x2="77.00457237558761" y1="148.6600716922263" y2="197.3201433844526" /><line stroke="cyan" x1="81.07929897564834" x2="62.15859795129668" y1="146.28182227124486" y2="192.56364454248973" /><line stroke="cyan" x1="92.44299378275107" x2="84.88598756550216" y1="149.42561741680584" y2="198.85123483361167" /><line stroke="cyan" x1="89.65664446587783" x2="79.31328893175566" y1="148.9184525132873" y2="197.83690502657458" /><line stroke="cyan" x1="80.15104264282593" x2="60.30208528565185" y1="145.89138145483403" y2="191.78276290966807" /><line stroke="cyan" x1="83.95766064878175" x2="67.91532129756351" y1="147.3565554927758" y2="194.71311098555162" /><line stroke="cyan" x1="80.58361421568853" x2="61.167228431377055" y1="146.07606713983722" y2="192.15213427967444" /><line stroke="cyan" x1="88.39456911346565" x2="76.7891382269313" y1="148.63449366383776" y2="197.26898732767552" /><line stroke="magenta" x1="84.48459415789358" x2="68.96918831578718" y1="147.53180179158718" y2="195.06360358317437" /><line stroke="magenta" x1="91.90443270129174" x2="83.80886540258348" y1="149.34026540374592" y2="198.68053080749183" /><line stroke="magenta" x1="96.26630903611061" x2="92.53261807222121" y1="149.86040063804313" y2="199.72080127608623" /><line stroke="magenta" x1="77.02962371526935" x2="54.0592474305387" y1="144.41128024880484" y2="188.8225604976097" /><line stroke="magenta" x1="94.77321785650562" x2="89.54643571301125" y1="149.72605703677345" y2="199.45211407354694" /><line stroke="magenta" x1="97.00187475116687" x2="94.00374950233373" y1="149.9100315066251" y2="199.82006301325018" /><line stroke="magenta" x1="99.75050097257552" x2="99.50100194515106" y1="149.99937749847805" y2="199.9987549969561" /><line stroke="magenta" x1="91.11339410067514" x2="82.22678820135026" y1="149.20394532545214" y2="198.40789065090428" /><line stroke="magenta" x1="83.4478345803124" x2="66.8956691606248" y1="147.18077807666273" y2="194.36155615332547" /><line stroke="magenta" x1="90.36295024835364" x2="80.72590049670728" y1="149.06248334607915" y2="198.1249666921583" /><line stroke="magenta" x1="78.34670085848421" x2="56.69340171696842" y1="145.068111079654" y2="190.136222159308" /><line stroke="magenta" x1="75.17247760723893" x2="50.34495521447787" y1="143.4003932221466" y2="186.80078644429318" /><line stroke="magenta" x1="80.61853908055606" x2="61.237078161112116" y1="146.09076884396774" y2="192.18153768793547" /><line stroke="magenta" x1="97.59991294193364" x2="95.19982588386728" y1="149.94236260043874" y2="199.88472520087748" /><line stroke="magenta" x1="84.81818921245677" x2="69.63637842491354" y1="147.6394019820908" y2="195.27880396418158" /><line stroke="yellow" x1="98.52670676549043" x2="97.05341353098085" y1="149.97828935693127" y2="199.95657871386254" /><line stroke="yellow" x1="95.42590678297132" x2="90.85181356594265" y1="149.79033712721707" y2="199.58067425443417" /><line stroke="yellow" x1="80.95651440239573" x2="61.91302880479145" y1="146.2314358017771" y2="192.46287160355422" /><line stroke="yellow" x1="78.33951707206626" x2="56.679034144132515" y1="145.06465887287612" y2="190.12931774575222" /><line stroke="yellow" x1="79.10860161571429" x2="58.21720323142858" y1="145.42630816552304" y2="190.85261633104608" /><line stroke="yellow" x1="83.03447779244503" x2="66.06895558489006" y1="147.03372254271352" y2="194.06744508542707" /><line stroke="yellow" x1="89.5145942355856" x2="79.02918847117121" y1="148.88820170506975" y2="197.7764034101395" /><line stroke="yellow" x1="85.92853528110204" x2="71.85707056220409" y1="147.97909837277905" y2="195.9581967455581" /><line stroke="yellow" x1="78.94135027525026" x2="57.88270055050052" y1="145.34901621612423" y2="190.69803243224845" /><line stroke="yellow" x1="99.54143496129643" x2="99.08286992259286" y1="149.99789713683245" y2="199.9957942736649" /><line stroke="yellow" x1="91.54887557851357" x2="83.09775115702713" y1="149.28060973661502" y2="198.56121947323004" /><line stroke="yellow" x1="86.70270910928889" x2="73.4054182185778" y1="148.19939890670642" y2="196.39879781341284" /><line stroke="yellow" x1="99.46460992398802" x2="98.92921984797604" y1="149.99713349249643" y2="199.99426698499286" /><line stroke="yellow" x1="87.22213698738385" x2="74.4442739747677" y1="148.3396960771457" y2="196.6793921542914" /><line stroke="cyan" x1="61.39926878857847" x2="22.798537577156935" y1="131.78023835567612" y2="163.56047671135224" /><line stroke="cyan" x1="58.983390031569" x2="17.966780063138003" y1="128.59436494656958" y2="157.18872989313917" /><line stroke="magenta" x1="66.81038287336926" x2="33.62076574673851" y1="137.39584622638802" y2="174.79169245277603" /><line stroke="magenta" x1="57.910971591730885" x2="15.82194318346177" y1="126.99099271327225" y2="153.9819854265445" /><line stroke="magenta" x1="63.302431684516904" x2="26.604863369033808" y1="133.96010129152225" y2="167.9202025830445" /><line stroke="magenta" x1="69.53533612410689" x2="39.07067224821377" y1="139.6472477598238" y2="179.2944955196476" /><line stroke="magenta" x1="67.55568415345489" x2="35.11136830690978" y1="138.04426854665" y2="176.08853709329998" /><line stroke="magenta" x1="66.2849305966248" x2="32.56986119324961" y1="136.92281266541858" y2="173.84562533083715" /><line stroke="yellow" x1="61.813293385568244" x2="23.626586771136488" y1="132.2765462517803" y2="164.55309250356063" /><line stroke="yellow" x1="62.30968010414237" x2="24.619360208284746" y1="132.8548289623903" y2="165.70965792478054" /><line stroke="yellow" x1="63.63746502834549" x2="27.274930056690977" y1="134.31859627716733" y2="168.63719255433466" /><line stroke="yellow" x1="66.23600134960698" x2="32.47200269921396" y1="136.8780747211166" y2="173.75614944223318" /><line stroke="yellow" x1="71.00970236762086" x2="42.019404735241736" y1="140.73772997095043" y2="181.47545994190085" /><line stroke="yellow" x1="59.35812643669111" x2="18.716252873382217" y1="129.12452769168993" y2="158.24905538337987" /><line stroke="yellow" x1="63.309058527733946" x2="26.61811705546789" y1="133.9672609122188" y2="167.93452182443758" /><line stroke="yellow" x1="57.15020011668841" x2="14.30040023337682" y1="125.76615318514096" y2="151.53230637028193" /><line stroke="yellow" x1="60.03474854467595" x2="20.0694970893519" y1="130.0462755780599" y2="160.09255115611978" /><line stroke="cyan" x1="51.072934480533974" x2="2.145868961067947" y1="110.30253656406413" y2="120.60507312812825" /><line stroke="cyan" x1="51.184609563941855" x2="2.36921912788371" y1="110.81931867426057" y2="121.63863734852114" /><line stroke="cyan" x1="50.286903330207764" x2="0.5738066604155279" y1="105.34864651102421" y2="110.69729302204843" /><line stroke="cyan" x1="50.79701340577853" x2="1.5940268115570575" y1="108.89191262939883" y2="117.78382525879766" /><line stroke="cyan" x1="54.60937977623775" x2="9.218759552475504" y1="120.96882437577715" y2="141.9376487515543" /><line stroke="cyan" x1="51.24586960533933" x2="2.4917392106786593" y1="111.09210392398234" y2="122.18420784796467" /><line stroke="cyan" x1="51.873532958065525" x2="3.7470659161310493" y1="113.55887790569686" y2="127.11775581139372" /><line stroke="cyan" x1="55.277655708996896" x2="10.555311417993792" y1="122.35871018455632" y2="144.71742036911263" /><line stroke="cyan" x1="52.674949482561026" x2="5.349898965122051" y1="116.13504240843044" y2="132.27008481686087" /><line stroke="cyan" x1="55.00709889224086" x2="10.014197784481723" y1="121.80914601508749" y2="143.61829203017498" /><line stroke="cyan" x1="52.23303622836843" x2="4.466072456736853" y1="114.77555995688952" y2="129.55111991377905" /><line stroke="cyan" x1="50.04283741895275" x2="0.08567483790550057" y1="102.06927689080332" y2="104.13855378160665" /><line stroke="cyan" x1="51.66355928998918" x2="3.327118579978361" y1="112.79017198819501" y2="125.58034397639004" /><line stroke="cyan" x1="55.80284304966974" x2="11.60568609933948" y1="123.37972021876809" y2="146.75944043753617" /><line stroke="cyan" x1="51.712674744623165" x2="3.4253494892463294" y1="112.97436779505831" y2="125.94873559011663" /><line stroke="cyan" x1="51.091402072872214" x2="2.182804145744427" y1="110.38985316559149" y2="120.77970633118298" /><line stroke="cyan" x1="50.80117352960001" x2="1.6023470592000137" y1="108.9149017905678" y2="117.8298035811356" /><line stroke="cyan" x1="50.25044933472619" x2="0.5008986694523827" y1="104.99822054368897" y2="109.99644108737793" /><line stroke="cyan" x1="55.18577229780676" x2="10.371544595613514" y1="122.17397112508212" y2="144.34794225016424" /><line stroke="magenta" x1="50.01667934914945" x2="0.03335869829889759" y1="101.2913778355914" y2="102.58275567118281" /><line stroke="magenta" x1="55.10954776688569" x2="10.21909553377138" y1="122.01924835925338" y2="144.03849671850676" /><line stroke="magenta" x1="51.86871382344574" x2="3.7374276468914758" y1="113.54176100035134" y2="127.08352200070269" /><line stroke="magenta" x1="53.93686286138299" x2="7.8737257227659825" y1="119.44704082756454" y2="138.89408165512907" /><line stroke="magenta" x1="50.0656303229231" x2="0.13126064584619712" y1="102.5610007717732" y2="105.12200154354639" /><line stroke="magenta" x1="51.18689466243324" x2="2.373789324866479" y1="110.8296235993506" y2="121.6592471987012" /><line stroke="magenta" x1="50.38646274157324" x2="0.77292548314648" y1="106.2045886815082" y2="112.40917736301638" /><line stroke="magenta" x1="50.32226922501994" x2="0.6445384500398745" y1="105.66772132771179" y2="111.33544265542356" /><line stroke="magenta" x1="51.83412834571403" x2="3.6682566914280557" y1="113.41822670038223" y2="126.83645340076448" /><line stroke="magenta" x1="50.17897994964781" x2="0.3579598992956221" y1="104.22681453844446" y2="108.4536290768889" /><line stroke="magenta" x1="50.00163302128763" x2="0.003266042575262418" y1="100.40410328135876" y2="100.8082065627175" /><line stroke="magenta" x1="50.947159240279525" x2="1.8943184805590505" y1="109.68601122245407" y2="119.37202244490813" /><line stroke="magenta" x1="50.16408108320686" x2="0.3281621664137191" y1="104.04736775186284" y2="108.09473550372567" /><line stroke="magenta" x1="53.60903873813545" x2="7.218077476270906" y1="118.6515069954195" y2="137.303013990839" /><line stroke="magenta" x1="52.38113779096495" x2="4.762275581929899" y1="115.24611301010634" y2="130.49222602021268" /><line stroke="magenta" x1="50.620277721749375" x2="1.2405554434987494" y1="107.85130738939948" y2="115.70261477879897" /><line stroke="magenta" x1="50.87127105739644" x2="1.742542114792883" y1="109.29343814119333" y2="118.58687628238667" /><line stroke="magenta" x1="51.39668610676771" x2="2.79337221353542" y1="111.73532609670191" y2="123.47065219340382" /><line stroke="magenta" x1="50.08225330849125" x2="0.16450661698249291" y1="102.86680401185133" y2="105.73360802370266" /><line stroke="yellow" x1="51.54444878848192" x2="3.088897576963845" y1="112.33124311608319" y2="124.66248623216636" /><line stroke="yellow" x1="50.020626071739876" x2="0.04125214347975259" y1="101.43602985315489" y2="102.87205970630978" /><line stroke="yellow" x1="50.17814389060501" x2="0.35628778121001403" y1="104.21694840076805" y2="108.4338968015361" /><line stroke="yellow" x1="51.474885982460854" x2="2.949771964921709" y1="112.05459703120871" y2="124.10919406241744" /><line stroke="yellow" x1="50.758367856072695" x2="1.5167357121453904" y1="108.67534805077844" y2="117.35069610155688" /><line stroke="yellow" x1="50.16723212314423" x2="0.33446424628846216" y1="104.08598161173192" y2="108.17196322346385" /><line stroke="yellow" x1="50.42700297885023" x2="0.8540059577004655" y1="106.52058021506339" y2="113.04116043012678" /><line stroke="yellow" x1="50.667898011974415" x2="1.3357960239488307" y1="108.14516503473331" y2="116.29033006946662" /><line stroke="yellow" x1="54.812572390163936" x2="9.625144780327872" y1="121.40318635170533" y2="142.80637270341066" /><line stroke="yellow" x1="50.896679402749726" x2="1.7933588054994516" y1="109.42676542211893" y2="118.85353084423788" /><line stroke="yellow" x1="50.90479036648237" x2="1.809580732964747" y1="109.46891709969823" y2="118.93783419939648" /><line stroke="yellow" x1="54.274984859363194" x2="8.549969718726388" y1="120.22926074745529" y2="140.45852149491057" /><line stroke="yellow" x1="50.62123635345115" x2="1.242472706902305" y1="107.85733420049485" y2="115.71466840098971" /><line stroke="yellow" x1="54.38148322902484" x2="8.762966458049675" y1="120.46829078394818" y2="140.93658156789635" /><line stroke="yellow" x1="55.81957497363793" x2="11.639149947275854" y1="123.4113229974301" y2="146.8226459948602" /><line stroke="yellow" x1="55.21349852126682" x2="10.426997042533642" y1="122.22991869745437" y2="144.45983739490873" /><line stroke="yellow" x1="50.74243465995244" x2="1.484869319904874" y1="108.58441941956156" y2="117.1688388391231" /><line stroke="cyan" x1="50.47945851288469" x2="0.9589170257693809" y1="93.09232522313827" y2="86.18465044627656" /><line stroke="cyan" x1="50.12739691861429" x2="0.2547938372285756" y1="96.43300380059686" y2="92.86600760119373" /><line stroke="cyan" x1="51.55148869421794" x2="3.1029773884358747" y1="87.64112657830384" y2="75.2822531566077" /><line stroke="cyan" x1="51.69626771295139" x2="3.3925354259027785" y1="87.08684983665343" y2="74.17369967330686" /><line stroke="cyan" x1="50.57028198160721" x2="1.1405639632144187" y1="92.46986211134387" y2="84.93972422268774" /><line stroke="cyan" x1="52.97764250820084" x2="5.955285016401675" y1="83.00300332666271" y2="66.00600665332543" /><line stroke="cyan" x1="50.04030964768522" x2="0.08061929537043966" y1="97.99267842615443" y2="95.98535685230885" /><line stroke="cyan" x1="51.772172034065306" x2="3.544344068130613" y1="86.80619047855367" y2="73.61238095710735" /><line stroke="cyan" x1="50.99677158850434" x2="1.9935431770086751" y1="90.06603778692589" y2="80.13207557385178" /><line stroke="cyan" x1="51.9821369962551" x2="3.9642739925102006" y1="86.06139058034887" y2="72.12278116069774" /><line stroke="cyan" x1="53.68780803468518" x2="7.375616069370366" y1="81.15375699594667" y2="62.30751399189332" /><line stroke="cyan" x1="54.6870099813194" x2="9.374019962638798" y1="78.86394228889993" y2="57.72788457779988" /><line stroke="cyan" x1="50.01020900487952" x2="0.020418009759040956" y1="98.98965537356251" y2="97.97931074712503" /><line stroke="cyan" x1="54.32130546243994" x2="8.642610924879875" y1="79.66636123699743" y2="59.332722473994856" /><line stroke="cyan" x1="54.689735366605206" x2="9.379470733210411" y1="78.85810039632833" y2="57.71620079265665" /><line stroke="cyan" x1="53.218751642349574" x2="6.437503284699147" y1="82.35021807217356" y2="64.70043614434711" /><line stroke="cyan" x1="50.13560906960509" x2="0.2712181392101769" y1="96.31998408417168" y2="92.63996816834336" /><line stroke="cyan" x1="55.34348061906923" x2="10.686961238138466" y1="77.51010723056788" y2="55.02021446113576" /><line stroke="magenta" x1="52.93434188097956" x2="5.868683761959119" y1="83.12327561925936" y2="66.24655123851872" /><line stroke="magenta" x1="53.480737612378164" x2="6.961475224756327" y1="81.67083670999703" y2="63.34167341999407" /><line stroke="magenta" x1="50.58302751772722" x2="1.1660550354544341" y1="92.38666757022297" y2="84.77333514044594" /><line stroke="magenta" x1="56.04320677035232" x2="12.08641354070464" y1="76.1714387978208" y2="52.342877595641596" /><line stroke="magenta" x1="50.648929157642115" x2="1.2978583152842305" y1="91.97056622715066" y2="83.94113245430133" /><line stroke="magenta" x1="50.49811243143093" x2="0.9962248628618653" y1="92.95989153856651" y2="85.91978307713303" /><line stroke="magenta" x1="51.382598623014495" x2="2.7651972460289898" y1="88.32317323289035" y2="76.64634646578071" /><line stroke="magenta" x1="53.231764454776474" x2="6.463528909552949" y1="82.31576566581151" y2="64.63153133162302" /><line stroke="magenta" x1="55.30358161459308" x2="10.607163229186156" y1="77.58950728973907" y2="55.17901457947815" /><line stroke="magenta" x1="52.501331444477394" x2="5.002662888954788" y1="84.38345475296768" y2="68.76690950593535" /><line stroke="magenta" x1="50.8460453571368" x2="1.6920907142736041" y1="90.84092018992371" y2="81.68184037984742" /><line stroke="magenta" x1="53.08058970233767" x2="6.161179404675337" y1="82.72085252914319" y2="65.44170505828637" /><line stroke="magenta" x1="51.659372785112055" x2="3.3187455702241095" y1="87.22566007688714" y2="74.45132015377428" /><line stroke="magenta" x1="50.302790603993145" x2="0.6055812079862903" y1="94.50569583573609" y2="89.01139167147218" /><line stroke="magenta" x1="56.459311184934904" x2="12.918622369869809" y1="75.41934871673118" y2="50.83869743346234" /><line stroke="magenta" x1="50.147537162458065" x2="0.29507432491612917" y1="96.16177788142743" y2="92.32355576285485" /><line stroke="magenta" x1="55.97788128446207" x2="11.955762568924143" y1="76.29234166360824" y2="52.58468332721649" /><line stroke="yellow" x1="56.17498567537716" x2="12.349971350754316" y1="75.92993312334586" y2="51.85986624669173" /><line stroke="yellow" x1="54.72499634923022" x2="9.449992698460434" y1="78.78269469459462" y2="57.565389389189235" /><line stroke="yellow" x1="55.71715919740236" x2="11.43431839480472" y1="76.78298015567472" y2="53.56596031134944" /><line stroke="yellow" x1="51.35693646136254" x2="2.7138729227250735" y1="88.4305415175956" y2="76.86108303519121" /><line stroke="yellow" x1="53.40898237353713" x2="6.817964747074257" y1="81.85400659840785" y2="63.70801319681569" /><line stroke="yellow" x1="56.6348098548697" x2="13.269619709739402" y1="75.11104092822092" y2="50.22208185644185" /><line stroke="yellow" x1="51.05698651953489" x2="2.1139730390697764" y1="89.77349368303084" y2="79.54698736606167" /><line stroke="yellow" x1="53.985688079992876" x2="7.971376159985752" y1="80.43771233908747" y2="60.87542467817494" /><line stroke="yellow" x1="51.85006878564091" x2="3.7001375712818145" y1="86.52468463996156" y2="73.04936927992313" /><line stroke="yellow" x1="56.38776540239911" x2="12.775530804798223" y1="75.54651367588204" y2="51.09302735176408" /><line stroke="yellow" x1="52.57027169081206" x2="5.140543381624127" y1="84.17530813833595" y2="68.3506162766719" /><line stroke="yellow" x1="54.628271436881825" x2="9.25654287376365" y1="78.99032967429697" y2="57.98065934859395" /><line stroke="yellow" x1="54.512091665194326" x2="9.024183330388652" y1="79.24306874019386" y2="58.48613748038773" /><line stroke="yellow" x1="55.35045602038618" x2="10.700912040772366" y1="77.4962620346634" y2="54.99252406932682" /><line stroke="yellow" x1="51.18957135024387" x2="2.3791427004877335" y1="89.15831862545916" y2="78.31663725091833" /><line stroke="yellow" x1="56.39413727906991" x2="12.788274558139818" y1="75.53515304843704" y2="51.070306096874084" /><line stroke="yellow" x1="53.05021353098696" x2="6.100427061973917" y1="82.8035599464866" y2="65.6071198929732" /><line stroke="yellow" x1="50.66227599217738" x2="1.3245519843547555" y1="91.88895877658587" y2="83.77791755317173" /><line stroke="cyan" x1="63.407413210626515" x2="26.81482642125303" y1="65.9268053733999" y2="31.853610746799816" /><line stroke="cyan" x1="61.19077013210706" x2="22.381540264214124" y1="68.47471368788149" y2="36.94942737576298" /><line stroke="cyan" x1="63.656537165494655" x2="27.31307433098931" y1="65.66120693447527" y2="31.322413868950562" /><line stroke="cyan" x1="66.69154541408992" x2="33.383090828179846" y1="62.70996308531774" y2="25.419926170635478" /><line stroke="cyan" x1="61.4088387269163" x2="22.8176774538326" y1="68.20814142591149" y2="36.41628285182299" /><line stroke="cyan" x1="67.79492396392607" x2="35.58984792785212" y1="61.75299910436512" y2="23.505998208730233" /><line stroke="cyan" x1="62.28537175658009" x2="24.57074351316018" y1="67.1730778710426" y2="34.34615574208519" /><line stroke="cyan" x1="62.52239265467513" x2="25.04478530935026" y1="66.90273504245931" y2="33.805470084918625" /><line stroke="cyan" x1="65.33462165633725" x2="30.66924331267451" y1="63.96790952094622" y2="27.935819041892444" /><line stroke="cyan" x1="69.68948041076558" x2="39.37896082153116" y1="60.2347840162959" y2="20.469568032591795" /><line stroke="cyan" x1="56.90518395347788" x2="13.810367906955761" y1="74.64577293790205" y2="49.29154587580412" /><line stroke="cyan" x1="69.19998853867838" x2="38.39997707735678" y1="60.612701362209954" y2="21.225402724419908" /><line stroke="cyan" x1="71.77595260444745" x2="43.551905208894915" y1="58.72769513810013" y2="17.455390276200262" /><line stroke="cyan" x1="61.833072829313004" x2="23.666145658626007" y1="67.70006702255445" y2="35.4001340451089" /><line stroke="cyan" x1="67.43316084103544" x2="34.86632168207089" y1="62.06056158567799" y2="24.121123171355976" /><line stroke="cyan" x1="58.05793652648492" x2="16.115873052969846" y1="72.78119562538367" y2="45.56239125076736" /><line stroke="magenta" x1="66.00098469385351" x2="32.00196938770702" y1="63.338481234236674" y2="26.67696246847335" /><line stroke="magenta" x1="72.17936127097045" x2="44.358722541940885" y1="58.45469869276646" y2="16.909397385532927" /><line stroke="magenta" x1="67.64059207687137" x2="35.28118415374276" y1="61.88348495908157" y2="23.76696991816314" /><line stroke="magenta" x1="60.7956249734306" x2="21.591249946861197" y1="68.9674851361334" y2="37.934970272266796" /><line stroke="magenta" x1="65.41479156686826" x2="30.82958313373652" y1="63.89095185916925" y2="27.781903718338498" /><line stroke="magenta" x1="58.23652944455286" x2="16.473058889105715" y1="72.50795520219896" y2="45.0159104043979" /><line stroke="magenta" x1="58.53682248010597" x2="17.073644960211936" y1="72.05711342839193" y2="44.114226856783866" /><line stroke="magenta" x1="63.09706717711367" x2="26.194134354227344" y1="66.26317221389155" y2="32.52634442778309" /><line stroke="magenta" x1="61.00021581572575" x2="22.000431631451505" y1="68.71075530505678" y2="37.42151061011357" /><line stroke="magenta" x1="68.8275129648151" x2="37.655025929630185" y1="60.90682857529683" y2="21.813657150593656" /><line stroke="magenta" x1="71.44050737291437" x2="42.88101474582873" y1="58.9591011199384" y2="17.918202239876805" /><line stroke="magenta" x1="62.57570865021817" x2="25.151417300436336" y1="66.84246063160529" y2="33.68492126321058" /><line stroke="magenta" x1="57.969033587725434" x2="15.938067175450868" y1="72.9186805629739" y2="45.83736112594781" /><line stroke="magenta" x1="59.372701682901344" x2="18.745403365802687" y1="70.85514399669347" y2="41.71028799338693" /><line stroke="magenta" x1="72.38988735278531" x2="44.77977470557062" y1="58.31449077187475" y2="16.628981543749504" /><line stroke="yellow" x1="59.87156504012274" x2="19.74313008024548" y1="70.1720146897096" y2="40.34402937941919" /><line stroke="yellow" x1="62.688434172772546" x2="25.37686834554509" y1="66.7156635108874" y2="33.431327021774806" /><line stroke="yellow" x1="65.25492478005695" x2="30.509849560113906" y1="64.04475354054016" y2="28.089507081080313" /><line stroke="yellow" x1="73.2944216272212" x2="46.588843254442395" y1="57.72929993748189" y2="15.458599874963781" /><line stroke="yellow" x1="57.77175901467018" x2="15.543518029340362" y1="73.22733365380073" y2="46.45466730760146" /><line stroke="yellow" x1="57.688500302865755" x2="15.37700060573151" y1="73.35911049947077" y2="46.718220998941554" /><line stroke="yellow" x1="67.45777330805021" x2="34.91554661610043" y1="62.039448345292044" y2="24.078896690584088" /><line stroke="yellow" x1="59.538202616008675" x2="19.07640523201735" y1="70.62581145875119" y2="41.251622917502374" /><line stroke="yellow" x1="63.092831257432906" x2="26.18566251486581" y1="66.26780624673695" y2="32.535612493473906" /><line stroke="yellow" x1="74.86698863885366" x2="49.73397727770731" y1="56.77579682723476" y2="13.551593654469514" /><line stroke="yellow" x1="61.241001890775564" x2="22.48200378155113" y1="68.41297631037175" y2="36.825952620743486" /><line stroke="yellow" x1="73.88013723540709" x2="47.76027447081417" y1="57.36488807146353" y2="14.729776142927065" /><line stroke="yellow" x1="70.27282032487508" x2="40.54564064975016" y1="59.79683111292295" y2="19.593662225845904" /><line stroke="yellow" x1="66.57645259022439" x2="33.1529051804488" y1="62.81308726787766" y2="25.626174535755325" /><line stroke="yellow" x1="72.8646714098115" x2="45.729342819623" y1="58.00388181864306" y2="16.007763637286118" /><line stroke="cyan" x1="91.59244524755884" x2="83.18489049511768" y1="50.71193833102478" y2="1.4238766620495653" /><line stroke="cyan" x1="81.50654390760836" x2="63.013087815216714" y1="53.545806628908274" y2="7.091613257816547" /><line stroke="cyan" x1="77.3432229740369" x2="54.68644594807381" y1="55.427918437705976" y2="10.855836875411953" /><line stroke="cyan" x1="81.56559885281575" x2="63.131197705631514" y1="53.52234026605156" y2="7.044680532103115" /><line stroke="cyan" x1="76.3132161192585" x2="52.626432238517005" y1="55.966645944386144" y2="11.933291888772288" /><line stroke="cyan" x1="82.38734375280492" x2="64.77468750560986" y1="53.20476156788877" y2="6.409523135777533" /><line stroke="cyan" x1="88.91678620174105" x2="77.8335724034821" y1="51.243847855864566" y2="2.487695711729131" /><line stroke="cyan" x1="94.10794648490594" x2="88.21589296981188" y1="50.348376608863354" y2="0.6967532177267088" /><line stroke="cyan" x1="92.10522676419576" x2="84.21045352839153" y1="50.6272083475602" y2="1.2544166951203977" /><line stroke="cyan" x1="86.11935760009958" x2="72.23871520019915" y1="51.965348272667924" y2="3.9306965453358487" /><line stroke="cyan" x1="89.8910034171258" x2="79.7820068342516" y1="51.03258034072616" y2="2.0651606814523262" /><line stroke="cyan" x1="90.58292930826401" x2="81.16585861652801" y1="50.894819218468946" y2="1.7896384369378922" /><line stroke="cyan" x1="83.95678245150421" x2="67.9135649030084" y1="52.64374201130714" y2="5.287484022614279" /><line stroke="cyan" x1="84.99946235253721" x2="69.99892470507442" y1="52.30320901478747" y2="4.6064180295749395" /><line stroke="cyan" x1="89.12712365925752" x2="78.25424731851504" y1="51.19651077966943" y2="2.3930215593388624" /><line stroke="cyan" x1="86.53249173118895" x2="73.06498346237791" y1="51.84788456329768" y2="3.6957691265953656" /><line stroke="cyan" x1="89.68918418364058" x2="79.37836836728114" y1="51.07467856823921" y2="2.1493571364784145" /><line stroke="magenta" x1="99.47530814728168" x2="98.95061629456336" y1="50.0027530911982" y2="0.005506182396402437" /><line stroke="magenta" x1="85.36917777147184" x2="70.73835554294368" y1="52.18850513822846" y2="4.3770102764569145" /><line stroke="magenta" x1="88.05711988969031" x2="76.11423977938064" y1="51.447269750602395" y2="2.8945395012047896" /><line stroke="magenta" x1="80.78346051771285" x2="61.5669210354257" y1="53.8402273583838" y2="7.680454716767599" /><line stroke="magenta" x1="79.45578081347465" x2="58.9115616269493" y1="54.415627041539736" y2="8.831254083079472" /><line stroke="magenta" x1="76.80284513968411" x2="53.60569027936821" y1="55.70674987781408" y2="11.413499755628166" /><line stroke="magenta" x1="84.01827106726277" x2="68.03654213452555" y1="52.62295555524269" y2="5.24591111048538" /><line stroke="magenta" x1="76.46972883399519" x2="52.93945766799039" y1="55.88281129928741" y2="11.765622598574822" /><line stroke="magenta" x1="98.27370210008073" x2="96.54740420016145" y1="50.02980993071235" y2="0.059619861424693" /><line stroke="magenta" x1="78.71621380937628" x2="57.432427618752556" y1="54.75621097441313" y2="9.512421948826258" /><line stroke="magenta" x1="81.88306299286154" x2="63.766125985723065" y1="53.397676093574724" y2="6.795352187149447" /><line stroke="magenta" x1="82.16565513276572" x2="64.33131026553144" y1="53.288800666686434" y2="6.5776013333728685" /><line stroke="magenta" x1="97.57191320720013" x2="95.14382641440027" y1="50.058990853942184" y2="0.11798170788436835" /><line stroke="magenta" x1="98.08102102977355" x2="96.1620420595471" y1="50.03683837353937" y2="0.07367674707873562" /><line stroke="magenta" x1="88.37989037524433" x2="76.75978075048866" y1="51.369011399019854" y2="2.738022798039708" /><line stroke="magenta" x1="77.52531797294813" x2="55.050635945896246" y1="55.33582343999935" y2="10.671646879998704" /><line stroke="yellow" x1="75.11929734012713" x2="50.23859468025426" y1="56.63007222566546" y2="13.260144451330916" /><line stroke="yellow" x1="90.9002445976595" x2="81.80048919531897" y1="50.83502820485325" y2="1.670056409706504" /><line stroke="yellow" x1="79.48858556152524" x2="58.977171123050475" y1="54.400856611849285" y2="8.80171322369857" /><line stroke="yellow" x1="97.06456640256374" x2="94.12913280512748" y1="50.08624208101495" y2="0.17248416202990313" /><line stroke="yellow" x1="81.32609206300278" x2="62.65218412600555" y1="53.61805133071108" y2="7.236102661422166" /><line stroke="yellow" x1="93.52836061561685" x2="87.0567212312337" y1="50.420590123736844" y2="0.8411802474736874" /><line stroke="yellow" x1="99.15086429565763" x2="98.30172859131525" y1="50.00721083440522" y2="0.014421668810442156" /><line stroke="yellow" x1="90.95470776918918" x2="81.90941553837835" y1="50.82497901922935" y2="1.6499580384587063" /><line stroke="yellow" x1="88.23812884515351" x2="76.47625769030702" y1="51.40310311412065" y2="2.806206228241294" /><line stroke="yellow" x1="84.44312788839518" x2="68.88625577679036" y1="52.48175371393456" y2="4.963507427869118" /><line stroke="yellow" x1="83.59389666167485" x2="67.18779332334971" y1="52.76823343074921" y2="5.536466861498425" /><line stroke="yellow" x1="91.34136979480724" x2="82.68273958961447" y1="50.75542544635274" y2="1.5108508927054771" /><line stroke="yellow" x1="95.66509987976724" x2="91.3301997595345" y1="50.18826803906929" y2="0.37653607813858514" /><line stroke="yellow" x1="90.9276944216323" x2="81.85538884326459" y1="50.82995554717569" y2="1.6599110943513864" /><line stroke="yellow" x1="81.34066574062727" x2="62.681331481254546" y1="53.612186460267395" y2="7.22437292053479" /><line stroke="yellow" x1="95.64557528734323" x2="91.29115057468647" y1="50.1899710357261" y2="0.3799420714522057" /><line stroke="cyan" x1="112.79237462226725" x2="125.58474924453449" y1="51.66414217660379" y2="3.3282843532075788" /><line stroke="cyan" x1="101.0799304981632" x2="102.15986099632639" y1="50.01166385926476" y2="0.023327718529515096" /><line stroke="cyan" x1="115.24057897963576" x2="130.4811579592715" y1="52.37936631705239" y2="4.758732634104774" /><line stroke="cyan" x1="124.59431625670531" x2="149.18863251341062" y1="56.467028497182035" y2="12.93405699436407" /><line stroke="cyan" x1="116.38117641623799" x2="132.76235283247598" y1="52.759582355570906" y2="5.519164711141812" /><line stroke="cyan" x1="116.15272793547196" x2="132.30545587094392" y1="52.68098289014633" y2="5.361965780292664" /><line stroke="cyan" x1="111.18012710784683" x2="122.36025421569364" y1="51.2659794614441" y2="2.531958922888194" /><line stroke="magenta" x1="116.96194396333684" x2="133.92388792667367" y1="52.96498690353514" y2="5.929973807070283" /><line stroke="magenta" x1="119.76712127433701" x2="139.53424254867403" y1="54.073309323165326" y2="8.146618646330651" /><line stroke="magenta" x1="119.53894570449374" x2="139.07789140898748" y1="53.975771589771924" y2="7.951543179543847" /><line stroke="magenta" x1="122.53373432572538" x2="145.06746865145075" y1="55.36558707300357" y2="10.731174146007135" /><line stroke="magenta" x1="106.40722235480997" x2="112.81444470961995" y1="50.41222427154023" y2="0.8244485430804644" /><line stroke="magenta" x1="102.62320366901179" x2="105.24640733802356" y1="50.06885939104853" y2="0.13771878209705335" /><line stroke="magenta" x1="120.45176349452346" x2="140.90352698904692" y1="54.37407129751683" y2="8.748142595033656" /><line stroke="yellow" x1="122.94778361922833" x2="145.89556723845666" y1="55.577041668017245" y2="11.154083336034489" /><line stroke="yellow" x1="101.37815830698901" x2="102.75631661397802" y1="50.01899681197988" y2="0.03799362395976402" /><line stroke="yellow" x1="100.89575988109712" x2="101.79151976219426" y1="50.00802450157209" y2="0.016049003144175344" /><line stroke="yellow" x1="101.05711623650947" x2="102.11423247301894" y1="50.011176196448595" y2="0.022352392897190043" /><line stroke="yellow" x1="119.05588026659044" x2="138.11176053318087" y1="53.77367170902096" y2="7.547343418041919" /><line stroke="yellow" x1="115.70424092415323" x2="131.40848184830645" y1="52.53025366619123" y2="5.060507332382457" /><line stroke="yellow" x1="102.65702138323604" x2="105.31404276647208" y1="50.070647537054654" y2="0.14129507410930842" /><line stroke="yellow" x1="107.36443425062372" x2="114.72886850124743" y1="50.545322686643274" y2="1.0906453732865486" /><line stroke="yellow" x1="102.8901035910438" x2="105.78020718208758" y1="50.08359687203979" y2="0.16719374407958298" /><line stroke="yellow" x1="113.29683643170421" x2="126.5936728634084" y1="51.800475719064366" y2="3.6009514381287318" /><line stroke="yellow" x1="109.91742211553473" x2="119.83484423106947" y1="50.993421476476215" y2="1.9868429529524292" /><line stroke="cyan" x1="135.75849504576954" x2="171.51699009153907" y1="65.05246743957915" y2="30.104934879158307" /><line stroke="magenta" x1="128.5536277325127" x2="157.1072554650254" y1="58.95502048589765" y2="17.910040971795297" /><line stroke="magenta" x1="141.49208048684028" x2="182.98416097368056" y1="72.1000491600152" y2="44.20009832003042" /><line stroke="magenta" x1="132.662622028355" x2="165.32524405671" y1="62.14299110821328" y2="24.28598221642656" /><line stroke="magenta" x1="133.03416590865768" x2="166.06833181731537" y1="62.46676295975421" y2="24.933525919508426" /><line stroke="magenta" x1="141.46543203885417" x2="182.93086407770835" y1="72.06045909770232" y2="44.120918195404634" /><line stroke="yellow" x1="142.87457785375568" x2="185.74915570751136" y1="74.27509817584833" y2="48.55019635169666" /><line stroke="yellow" x1="134.56698228456096" x2="169.13396456912193" y1="63.87350368858268" y2="27.74700737716536" /><line stroke="yellow" x1="142.90233387026663" x2="185.80466774053326" y1="74.32141459339763" y2="48.642829186795254" /><line stroke="yellow" x1="139.86519225109777" x2="179.73038450219553" y1="69.82109268407791" y2="39.642185368155836" /><line stroke="yellow" x1="133.0298602185862" x2="166.05972043717242" y1="62.462973826624776" y2="24.92594765324955" /><line stroke="yellow" x1="135.2171063575044" x2="170.4342127150088" y1="64.50696660182139" y2="29.01393320364278" /><line stroke="yellow" x1="141.44446851085692" x2="182.88893702171384" y1="72.02937201540536" y2="44.05874403081073" /><line stroke="yellow" x1="136.56112302249278" x2="173.12224604498556" y1="65.89304640789288" y2="31.786092815785764" /><line stroke="cyan" x1="148.86330558807384" x2="197.72661117614769" y1="89.39918083323217" y2="78.79836166646434" /><line stroke="cyan" x1="149.78221019893553" x2="199.56442039787106" y1="95.33828918646826" y2="90.67657837293652" /><line stroke="cyan" x1="149.57675441125227" x2="199.15350882250453" y1="93.50804944208758" y2="87.01609888417518" /><line stroke="cyan" x1="144.816769841077" x2="189.63353968215398" y1="77.83116735116772" y2="55.66233470233543" /><line stroke="cyan" x1="147.93042103641875" x2="195.8608420728375" y1="85.76361214100896" y2="71.52722428201791" /><line stroke="cyan" x1="143.84800072321428" x2="187.69600144642854" y1="75.97183251729336" y2="51.943665034586715" /><line stroke="cyan" x1="147.5133056546751" x2="195.0266113093502" y1="84.42804489585782" y2="68.85608979171563" /><line stroke="cyan" x1="148.2188369868145" x2="196.43767397362902" y1="86.77336930132965" y2="73.5467386026593" /><line stroke="cyan" x1="148.30527288582522" x2="196.61054577165046" y1="87.09261407464868" y2="74.18522814929736" /><line stroke="cyan" x1="149.23832388316424" x2="198.47664776632845" y1="91.30589503303419" y2="82.61179006606838" /><line stroke="magenta" x1="149.97667848407582" x2="199.95335696815164" y1="98.47303971914351" y2="96.94607943828704" /><line stroke="magenta" x1="144.6951529218828" x2="189.3903058437656" y1="77.58698357450494" y2="55.17396714900989" /><line stroke="magenta" x1="145.85605194785282" x2="191.71210389570564" y1="80.06955846560787" y2="60.13911693121574" /><line stroke="magenta" x1="149.99950774119134" x2="199.99901548238267" y1="99.7781314836513" y2="99.55626296730259" /><line stroke="magenta" x1="145.41344059653358" x2="190.82688119306715" y1="79.08064501029928" y2="58.16129002059856" /><line stroke="magenta" x1="145.63941178911853" x2="191.27882357823705" y1="79.57834258579217" y2="59.15668517158435" /><line stroke="magenta" x1="147.00538683971857" x2="194.01077367943714" y1="82.9561269645537" y2="65.91225392910741" /><line stroke="magenta" x1="144.7382058763651" x2="189.4764117527302" y1="77.67304465530574" y2="55.34608931061148" /><line stroke="magenta" x1="149.59147769925232" x2="199.18295539850465" y1="93.6214939363077" y2="87.24298787261542" /><line stroke="magenta" x1="148.53996470429468" x2="197.07992940858932" y1="88.00534175118653" y2="76.01068350237308" /><line stroke="yellow" x1="148.62690157379888" x2="197.25380314759772" y1="88.36279916251002" y2="76.72559832502003" /><line stroke="yellow" x1="149.449472009961" x2="198.898944019922" y1="92.60069476666328" y2="85.20138953332656" /><line stroke="yellow" x1="143.3455102442284" x2="186.6910204884568" y1="75.07678307947603" y2="50.15356615895207" /><line stroke="yellow" x1="148.8878407251844" x2="197.77568145036878" y1="89.51291130823229" y2="79.02582261646458" /><line stroke="yellow" x1="144.27070826424068" x2="188.54141652848136" y1="76.75985392080136" y2="53.519707841602724" /><line stroke="yellow" x1="149.64053032422567" x2="199.28106064845133" y1="94.01520684320407" y2="88.03041368640814" /><line stroke="yellow" x1="146.62127745844873" x2="193.24255491689746" y1="81.9318930669995" y2="63.863786133999014" /><line stroke="yellow" x1="144.13367131125608" x2="188.2673426225122" y1="76.50065837964794" y2="53.00131675929588" /><line stroke="yellow" x1="147.7990083701494" x2="195.59801674029882" y1="85.32843570608821" y2="70.65687141217643" /><line stroke="yellow" x1="147.24284674605548" x2="194.48569349211095" y1="83.62583036216142" y2="67.25166072432283" /></svg>